<svg width="1440" height="506" viewBox="0 0 1440 506" fill="none" xmlns="http://www.w3.org/2000/svg">
<path d="M218.877 203H188.691V89.2402C177.663 99.5527 164.665 107.18 149.697 112.121V84.7285C157.575 82.1504 166.133 77.2806 175.371 70.1191C184.609 62.8861 190.947 54.4714 194.385 44.875H218.877V203ZM264.746 166.584L293.965 163.361C294.681 169.305 296.543 173.71 299.551 176.574C302.559 179.439 306.533 180.871 311.475 180.871C317.705 180.871 323.005 178.007 327.373 172.277C331.742 166.548 334.535 154.66 335.752 136.613C328.161 145.422 318.672 149.826 307.285 149.826C294.896 149.826 284.189 145.064 275.166 135.539C266.214 125.943 261.738 113.482 261.738 98.1562C261.738 82.1862 266.465 69.3314 275.918 59.5918C285.443 49.7806 297.546 44.875 312.227 44.875C328.197 44.875 341.302 51.0697 351.543 63.459C361.784 75.7767 366.904 96.0794 366.904 124.367C366.904 153.156 361.569 173.924 350.898 186.672C340.228 199.419 326.335 205.793 309.219 205.793C296.901 205.793 286.947 202.535 279.355 196.018C271.764 189.429 266.895 179.618 264.746 166.584ZM333.066 100.627C333.066 90.8874 330.811 83.332 326.299 77.9609C321.859 72.5898 316.702 69.9043 310.83 69.9043C305.244 69.9043 300.589 72.1243 296.865 76.5645C293.213 80.9329 291.387 88.1302 291.387 98.1562C291.387 108.326 293.392 115.809 297.402 120.607C301.413 125.334 306.426 127.697 312.441 127.697C318.242 127.697 323.112 125.406 327.051 120.822C331.061 116.239 333.066 109.507 333.066 100.627ZM386.992 162.502L417.07 159.387C417.93 166.19 420.472 171.597 424.697 175.607C428.923 179.546 433.792 181.516 439.307 181.516C445.609 181.516 450.944 178.973 455.312 173.889C459.681 168.732 461.865 160.998 461.865 150.686C461.865 141.018 459.681 133.785 455.312 128.986C451.016 124.117 445.394 121.682 438.447 121.682C429.782 121.682 422.012 125.513 415.137 133.176L390.645 129.631L406.113 47.668H485.928V75.9199H428.994L424.268 102.668C430.999 99.3021 437.874 97.6191 444.893 97.6191C458.285 97.6191 469.635 102.489 478.945 112.229C488.255 121.968 492.91 134.608 492.91 150.148C492.91 163.111 489.15 174.676 481.631 184.846C471.39 198.739 457.174 205.686 438.984 205.686C424.447 205.686 412.594 201.783 403.428 193.977C394.261 186.171 388.783 175.679 386.992 162.502ZM560.049 44.875C575.303 44.875 587.227 50.3177 595.82 61.2031C606.061 74.0938 611.182 95.4707 611.182 125.334C611.182 155.126 606.025 176.538 595.713 189.572C587.191 200.314 575.303 205.686 560.049 205.686C544.723 205.686 532.37 199.813 522.988 188.068C513.607 176.252 508.916 155.233 508.916 125.012C508.916 95.3633 514.072 74.0221 524.385 60.9883C532.907 50.2461 544.795 44.875 560.049 44.875ZM560.049 69.9043C556.396 69.9043 553.138 71.0859 550.273 73.4492C547.409 75.7409 545.189 79.8945 543.613 85.9102C541.536 93.7161 540.498 106.857 540.498 125.334C540.498 143.811 541.429 156.522 543.291 163.469C545.153 170.344 547.48 174.927 550.273 177.219C553.138 179.51 556.396 180.656 560.049 180.656C563.701 180.656 566.96 179.51 569.824 177.219C572.689 174.855 574.909 170.666 576.484 164.65C578.561 156.916 579.6 143.811 579.6 125.334C579.6 106.857 578.669 94.1816 576.807 87.3066C574.945 80.36 572.581 75.7409 569.717 73.4492C566.924 71.0859 563.701 69.9043 560.049 69.9043ZM695.723 160.998V130.812H755.02V160.998H695.723ZM929.15 174.963V203H823.34C824.486 192.401 827.923 182.375 833.652 172.922C839.382 163.397 850.697 150.793 867.598 135.109C881.204 122.434 889.548 113.84 892.627 109.328C896.781 103.098 898.857 96.9388 898.857 90.8516C898.857 84.1198 897.031 78.9635 893.379 75.3828C889.798 71.7305 884.821 69.9043 878.447 69.9043C872.145 69.9043 867.132 71.8021 863.408 75.5977C859.684 79.3932 857.536 85.6953 856.963 94.5039L826.885 91.4961C828.675 74.8815 834.297 62.9577 843.75 55.7246C853.203 48.4915 865.02 44.875 879.199 44.875C894.74 44.875 906.95 49.0645 915.83 57.4434C924.71 65.8223 929.15 76.2422 929.15 88.7031C929.15 95.793 927.861 102.561 925.283 109.006C922.777 115.38 918.766 122.076 913.252 129.094C909.6 133.749 903.011 140.445 893.486 149.182C883.962 157.919 877.91 163.719 875.332 166.584C872.826 169.449 870.785 172.242 869.209 174.963H929.15ZM1000.69 44.875C1015.95 44.875 1027.87 50.3177 1036.46 61.2031C1046.71 74.0938 1051.83 95.4707 1051.83 125.334C1051.83 155.126 1046.67 176.538 1036.36 189.572C1027.84 200.314 1015.95 205.686 1000.69 205.686C985.368 205.686 973.014 199.813 963.633 188.068C954.251 176.252 949.561 155.233 949.561 125.012C949.561 95.3633 954.717 74.0221 965.029 60.9883C973.551 50.2461 985.439 44.875 1000.69 44.875ZM1000.69 69.9043C997.041 69.9043 993.783 71.0859 990.918 73.4492C988.053 75.7409 985.833 79.8945 984.258 85.9102C982.181 93.7161 981.143 106.857 981.143 125.334C981.143 143.811 982.074 156.522 983.936 163.469C985.798 170.344 988.125 174.927 990.918 177.219C993.783 179.51 997.041 180.656 1000.69 180.656C1004.35 180.656 1007.6 179.51 1010.47 177.219C1013.33 174.855 1015.55 170.666 1017.13 164.65C1019.21 156.916 1020.24 143.811 1020.24 125.334C1020.24 106.857 1019.31 94.1816 1017.45 87.3066C1015.59 80.36 1013.23 75.7409 1010.36 73.4492C1007.57 71.0859 1004.35 69.9043 1000.69 69.9043ZM1123.15 44.875C1138.41 44.875 1150.33 50.3177 1158.93 61.2031C1169.17 74.0938 1174.29 95.4707 1174.29 125.334C1174.29 155.126 1169.13 176.538 1158.82 189.572C1150.3 200.314 1138.41 205.686 1123.15 205.686C1107.83 205.686 1095.48 199.813 1086.09 188.068C1076.71 176.252 1072.02 155.233 1072.02 125.012C1072.02 95.3633 1077.18 74.0221 1087.49 60.9883C1096.01 50.2461 1107.9 44.875 1123.15 44.875ZM1123.15 69.9043C1119.5 69.9043 1116.24 71.0859 1113.38 73.4492C1110.51 75.7409 1108.29 79.8945 1106.72 85.9102C1104.64 93.7161 1103.6 106.857 1103.6 125.334C1103.6 143.811 1104.53 156.522 1106.4 163.469C1108.26 170.344 1110.59 174.927 1113.38 177.219C1116.24 179.51 1119.5 180.656 1123.15 180.656C1126.81 180.656 1130.07 179.51 1132.93 177.219C1135.79 174.855 1138.01 170.666 1139.59 164.65C1141.67 156.916 1142.71 143.811 1142.71 125.334C1142.71 106.857 1141.77 94.1816 1139.91 87.3066C1138.05 80.36 1135.69 75.7409 1132.82 73.4492C1130.03 71.0859 1126.81 69.9043 1123.15 69.9043ZM1195.02 162.502L1225.1 159.387C1225.96 166.19 1228.5 171.597 1232.72 175.607C1236.95 179.546 1241.82 181.516 1247.33 181.516C1253.64 181.516 1258.97 178.973 1263.34 173.889C1267.71 168.732 1269.89 160.998 1269.89 150.686C1269.89 141.018 1267.71 133.785 1263.34 128.986C1259.04 124.117 1253.42 121.682 1246.47 121.682C1237.81 121.682 1230.04 125.513 1223.16 133.176L1198.67 129.631L1214.14 47.668H1293.96V75.9199H1237.02L1232.29 102.668C1239.03 99.3021 1245.9 97.6191 1252.92 97.6191C1266.31 97.6191 1277.66 102.489 1286.97 112.229C1296.28 121.968 1300.94 134.608 1300.94 150.148C1300.94 163.111 1297.18 174.676 1289.66 184.846C1279.42 198.739 1265.2 205.686 1247.01 205.686C1232.47 205.686 1220.62 201.783 1211.46 193.977C1202.29 186.171 1196.81 175.679 1195.02 162.502Z" fill="white"/>
<path d="M24.2285 404.76L55.166 401.752C57.028 412.136 60.7878 419.763 66.4453 424.633C72.1745 429.503 79.873 431.938 89.541 431.938C99.7819 431.938 107.48 429.789 112.637 425.492C117.865 421.124 120.479 416.039 120.479 410.238C120.479 406.514 119.368 403.363 117.148 400.785C115 398.135 111.204 395.844 105.762 393.91C102.038 392.621 93.5514 390.329 80.3027 387.035C63.2585 382.81 51.2988 377.618 44.4238 371.459C34.7559 362.794 29.9219 352.23 29.9219 339.77C29.9219 331.749 32.1777 324.265 36.6895 317.318C41.2728 310.3 47.8255 304.965 56.3477 301.312C64.9414 297.66 75.2897 295.834 87.3926 295.834C107.158 295.834 122.018 300.167 131.973 308.832C141.999 317.497 147.262 329.063 147.764 343.529L115.967 344.926C114.606 336.833 111.67 331.033 107.158 327.523C102.718 323.943 96.0221 322.152 87.0703 322.152C77.832 322.152 70.599 324.05 65.3711 327.846C62.0052 330.281 60.3223 333.539 60.3223 337.621C60.3223 341.345 61.8978 344.532 65.0488 347.182C69.0592 350.548 78.7988 354.057 94.2676 357.709C109.736 361.361 121.159 365.157 128.535 369.096C135.983 372.963 141.784 378.298 145.938 385.102C150.163 391.833 152.275 400.176 152.275 410.131C152.275 419.154 149.769 427.605 144.756 435.482C139.743 443.36 132.653 449.232 123.486 453.1C114.32 456.895 102.897 458.793 89.2188 458.793C69.3099 458.793 54.0202 454.21 43.3496 445.043C32.679 435.805 26.3053 422.377 24.2285 404.76ZM171.826 397.348C171.826 387.322 174.297 377.618 179.238 368.236C184.18 358.855 191.162 351.693 200.186 346.752C209.281 341.811 219.414 339.34 230.586 339.34C247.845 339.34 261.989 344.962 273.018 356.205C284.046 367.377 289.561 381.521 289.561 398.637C289.561 415.896 283.975 430.219 272.803 441.605C261.702 452.921 247.702 458.578 230.801 458.578C220.345 458.578 210.355 456.215 200.83 451.488C191.377 446.762 184.18 439.851 179.238 430.756C174.297 421.589 171.826 410.453 171.826 397.348ZM202.764 398.959C202.764 410.274 205.449 418.939 210.82 424.955C216.191 430.971 222.816 433.979 230.693 433.979C238.571 433.979 245.16 430.971 250.459 424.955C255.83 418.939 258.516 410.202 258.516 398.744C258.516 387.572 255.83 378.979 250.459 372.963C245.16 366.947 238.571 363.939 230.693 363.939C222.816 363.939 216.191 366.947 210.82 372.963C205.449 378.979 202.764 387.644 202.764 398.959ZM412.773 375.648L383.018 381.02C382.015 375.076 379.723 370.6 376.143 367.592C372.633 364.584 368.05 363.08 362.393 363.08C354.873 363.08 348.857 365.694 344.346 370.922C339.906 376.078 337.686 384.743 337.686 396.918C337.686 410.453 339.941 420.014 344.453 425.6C349.036 431.186 355.16 433.979 362.822 433.979C368.551 433.979 373.242 432.367 376.895 429.145C380.547 425.85 383.125 420.229 384.629 412.279L414.277 417.328C411.198 430.935 405.29 441.212 396.553 448.158C387.816 455.105 376.107 458.578 361.426 458.578C344.74 458.578 331.419 453.314 321.465 442.787C311.582 432.26 306.641 417.686 306.641 399.066C306.641 380.232 311.618 365.587 321.572 355.131C331.527 344.604 344.99 339.34 361.963 339.34C375.856 339.34 386.885 342.348 395.049 348.363C403.285 354.307 409.193 363.402 412.773 375.648ZM435.762 326.449V298.52H465.947V326.449H435.762ZM435.762 456V341.918H465.947V456H435.762ZM519.551 376.723L492.158 371.781C495.238 360.753 500.537 352.589 508.057 347.289C515.576 341.99 526.748 339.34 541.572 339.34C555.036 339.34 565.062 340.951 571.65 344.174C578.239 347.325 582.858 351.371 585.508 356.312C588.229 361.182 589.59 370.17 589.59 383.275L589.268 418.51C589.268 428.536 589.733 435.948 590.664 440.746C591.667 445.473 593.493 450.557 596.143 456H566.279C565.492 453.995 564.525 451.023 563.379 447.084C562.878 445.294 562.52 444.112 562.305 443.539C557.148 448.552 551.634 452.312 545.762 454.818C539.889 457.325 533.623 458.578 526.963 458.578C515.218 458.578 505.944 455.391 499.141 449.018C492.409 442.644 489.043 434.587 489.043 424.848C489.043 418.402 490.583 412.673 493.662 407.66C496.742 402.576 501.038 398.708 506.553 396.059C512.139 393.337 520.16 390.974 530.615 388.969C544.723 386.319 554.499 383.848 559.941 381.557V378.549C559.941 372.748 558.509 368.63 555.645 366.195C552.78 363.689 547.373 362.436 539.424 362.436C534.053 362.436 529.863 363.51 526.855 365.658C523.848 367.735 521.413 371.423 519.551 376.723ZM559.941 401.215C556.074 402.504 549.951 404.044 541.572 405.834C533.193 407.624 527.715 409.379 525.137 411.098C521.198 413.891 519.229 417.436 519.229 421.732C519.229 425.958 520.804 429.61 523.955 432.689C527.106 435.769 531.117 437.309 535.986 437.309C541.429 437.309 546.621 435.518 551.562 431.938C555.215 429.216 557.614 425.886 558.76 421.947C559.548 419.369 559.941 414.464 559.941 407.23V401.215ZM619.453 456V298.52H649.639V456H619.453ZM807.979 419.691L838.057 424.74C834.189 435.769 828.066 444.184 819.688 449.984C811.38 455.714 800.96 458.578 788.428 458.578C768.59 458.578 753.91 452.097 744.385 439.135C736.865 428.751 733.105 415.645 733.105 399.818C733.105 380.912 738.047 366.124 747.93 355.453C757.812 344.711 770.309 339.34 785.42 339.34C802.393 339.34 815.785 344.962 825.596 356.205C835.407 367.377 840.098 384.529 839.668 407.66H764.043C764.258 416.612 766.693 423.594 771.348 428.607C776.003 433.549 781.803 436.02 788.75 436.02C793.477 436.02 797.451 434.73 800.674 432.152C803.896 429.574 806.331 425.421 807.979 419.691ZM809.697 389.184C809.482 380.447 807.227 373.822 802.93 369.311C798.633 364.727 793.405 362.436 787.246 362.436C780.658 362.436 775.215 364.835 770.918 369.633C766.621 374.431 764.508 380.948 764.58 389.184H809.697ZM895.742 456L849.766 341.918H881.455L902.939 400.141L909.17 419.584C910.817 414.643 911.855 411.384 912.285 409.809C913.288 406.586 914.362 403.363 915.508 400.141L937.207 341.918H968.252L922.92 456H895.742ZM1052.9 419.691L1082.98 424.74C1079.11 435.769 1072.99 444.184 1064.61 449.984C1056.3 455.714 1045.88 458.578 1033.35 458.578C1013.51 458.578 998.831 452.097 989.307 439.135C981.787 428.751 978.027 415.645 978.027 399.818C978.027 380.912 982.969 366.124 992.852 355.453C1002.73 344.711 1015.23 339.34 1030.34 339.34C1047.31 339.34 1060.71 344.962 1070.52 356.205C1080.33 367.377 1085.02 384.529 1084.59 407.66H1008.96C1009.18 416.612 1011.61 423.594 1016.27 428.607C1020.92 433.549 1026.73 436.02 1033.67 436.02C1038.4 436.02 1042.37 434.73 1045.6 432.152C1048.82 429.574 1051.25 425.421 1052.9 419.691ZM1054.62 389.184C1054.4 380.447 1052.15 373.822 1047.85 369.311C1043.55 364.727 1038.33 362.436 1032.17 362.436C1025.58 362.436 1020.14 364.835 1015.84 369.633C1011.54 374.431 1009.43 380.948 1009.5 389.184H1054.62ZM1213.07 456H1182.88V397.777C1182.88 385.46 1182.24 377.51 1180.95 373.93C1179.66 370.277 1177.55 367.449 1174.61 365.443C1171.74 363.438 1168.27 362.436 1164.19 362.436C1158.96 362.436 1154.27 363.868 1150.12 366.732C1145.96 369.597 1143.1 373.393 1141.52 378.119C1140.02 382.846 1139.27 391.583 1139.27 404.33V456H1109.08V341.918H1137.12V358.676C1147.07 345.785 1159.61 339.34 1174.72 339.34C1181.38 339.34 1187.46 340.557 1192.98 342.992C1198.49 345.355 1202.65 348.399 1205.44 352.123C1208.3 355.847 1210.27 360.072 1211.35 364.799C1212.49 369.525 1213.07 376.293 1213.07 385.102V456ZM1296.1 341.918V365.98H1275.48V411.957C1275.48 421.267 1275.66 426.71 1276.02 428.285C1276.45 429.789 1277.34 431.042 1278.7 432.045C1280.13 433.048 1281.85 433.549 1283.86 433.549C1286.65 433.549 1290.7 432.582 1296 430.648L1298.57 454.066C1291.56 457.074 1283.61 458.578 1274.73 458.578C1269.28 458.578 1264.38 457.683 1260.01 455.893C1255.64 454.031 1252.42 451.667 1250.34 448.803C1248.34 445.867 1246.94 441.928 1246.15 436.986C1245.51 433.477 1245.19 426.387 1245.19 415.717V365.98H1231.33V341.918H1245.19V319.252L1275.48 301.635V341.918H1296.1ZM1306.42 423.451L1336.71 418.832C1338 424.704 1340.61 429.18 1344.55 432.26C1348.49 435.268 1354 436.771 1361.09 436.771C1368.9 436.771 1374.77 435.339 1378.71 432.475C1381.36 430.469 1382.69 427.784 1382.69 424.418C1382.69 422.126 1381.97 420.229 1380.54 418.725C1379.03 417.292 1375.67 415.967 1370.44 414.75C1346.09 409.379 1330.66 404.473 1324.14 400.033C1315.12 393.874 1310.61 385.316 1310.61 374.359C1310.61 364.477 1314.51 356.169 1322.31 349.438C1330.12 342.706 1342.22 339.34 1358.62 339.34C1374.24 339.34 1385.84 341.882 1393.43 346.967C1401.02 352.051 1406.25 359.571 1409.11 369.525L1380.64 374.789C1379.43 370.349 1377.1 366.947 1373.66 364.584C1370.3 362.221 1365.46 361.039 1359.16 361.039C1351.21 361.039 1345.52 362.149 1342.08 364.369C1339.79 365.945 1338.64 367.986 1338.64 370.492C1338.64 372.641 1339.65 374.467 1341.65 375.971C1344.37 377.976 1353.75 380.805 1369.79 384.457C1385.91 388.109 1397.15 392.585 1403.53 397.885C1409.83 403.256 1412.98 410.74 1412.98 420.336C1412.98 430.792 1408.61 439.779 1399.87 447.299C1391.14 454.818 1378.21 458.578 1361.09 458.578C1345.55 458.578 1333.24 455.427 1324.14 449.125C1315.12 442.823 1309.21 434.265 1306.42 423.451Z" fill="white"/>
</svg>
