<svg width="1440" height="506" viewBox="0 0 1440 506" fill="none" xmlns="http://www.w3.org/2000/svg">
<path d="M106.084 45.5195H169.033C181.494 45.5195 190.768 46.0566 196.855 47.1309C203.014 48.1335 208.493 50.2819 213.291 53.5762C218.161 56.8704 222.207 61.2747 225.43 66.7891C228.652 72.2318 230.264 78.3548 230.264 85.1582C230.264 92.5345 228.258 99.3021 224.248 105.461C220.309 111.62 214.938 116.239 208.135 119.318C217.731 122.111 225.107 126.874 230.264 133.605C235.42 140.337 237.998 148.251 237.998 157.346C237.998 164.507 236.315 171.49 232.949 178.293C229.655 185.025 225.107 190.432 219.307 194.514C213.577 198.524 206.488 200.995 198.037 201.926C192.738 202.499 179.954 202.857 159.688 203H106.084V45.5195ZM137.881 71.7305V108.146H158.721C171.11 108.146 178.809 107.967 181.816 107.609C187.259 106.965 191.52 105.103 194.6 102.023C197.751 98.8724 199.326 94.7546 199.326 89.6699C199.326 84.8001 197.965 80.8613 195.244 77.8535C192.594 74.7741 188.62 72.9121 183.32 72.2676C180.169 71.9095 171.11 71.7305 156.143 71.7305H137.881ZM137.881 134.357V176.467H167.314C178.773 176.467 186.042 176.145 189.121 175.5C193.848 174.641 197.679 172.564 200.615 169.27C203.623 165.904 205.127 161.428 205.127 155.842C205.127 151.115 203.981 147.105 201.689 143.811C199.398 140.516 196.068 138.117 191.699 136.613C187.402 135.109 178.021 134.357 163.555 134.357H137.881ZM330.811 166.691L360.889 171.74C357.021 182.769 350.898 191.184 342.52 196.984C334.212 202.714 323.792 205.578 311.26 205.578C291.423 205.578 276.742 199.097 267.217 186.135C259.697 175.751 255.938 162.645 255.938 146.818C255.938 127.912 260.879 113.124 270.762 102.453C280.645 91.7109 293.141 86.3398 308.252 86.3398C325.225 86.3398 338.617 91.9616 348.428 103.205C358.239 114.377 362.93 131.529 362.5 154.66H286.875C287.09 163.612 289.525 170.594 294.18 175.607C298.835 180.549 304.635 183.02 311.582 183.02C316.309 183.02 320.283 181.73 323.506 179.152C326.729 176.574 329.163 172.421 330.811 166.691ZM332.529 136.184C332.314 127.447 330.059 120.822 325.762 116.311C321.465 111.727 316.237 109.436 310.078 109.436C303.49 109.436 298.047 111.835 293.75 116.633C289.453 121.431 287.34 127.948 287.412 136.184H332.529ZM417.285 45.5195V103.42C427.025 92.0332 438.662 86.3398 452.197 86.3398C459.144 86.3398 465.41 87.6289 470.996 90.207C476.582 92.7852 480.771 96.0794 483.564 100.09C486.429 104.1 488.363 108.54 489.365 113.41C490.439 118.28 490.977 125.835 490.977 136.076V203H460.791V142.736C460.791 130.777 460.218 123.186 459.072 119.963C457.926 116.74 455.885 114.198 452.949 112.336C450.085 110.402 446.468 109.436 442.1 109.436C437.087 109.436 432.611 110.653 428.672 113.088C424.733 115.523 421.833 119.211 419.971 124.152C418.18 129.022 417.285 136.255 417.285 145.852V203H387.1V45.5195H417.285ZM521.699 73.4492V45.5195H551.885V73.4492H521.699ZM521.699 203V88.918H551.885V203H521.699ZM686.699 203H656.514V144.777C656.514 132.46 655.869 124.51 654.58 120.93C653.291 117.277 651.178 114.449 648.242 112.443C645.378 110.438 641.904 109.436 637.822 109.436C632.594 109.436 627.904 110.868 623.75 113.732C619.596 116.597 616.732 120.393 615.156 125.119C613.652 129.846 612.9 138.583 612.9 151.33V203H582.715V88.918H610.752V105.676C620.706 92.7852 633.239 86.3398 648.35 86.3398C655.01 86.3398 661.097 87.5573 666.611 89.9922C672.126 92.3555 676.279 95.3991 679.072 99.123C681.937 102.847 683.906 107.072 684.98 111.799C686.126 116.525 686.699 123.293 686.699 132.102V203ZM822.051 203H794.014V186.242C789.359 192.759 783.844 197.629 777.471 200.852C771.169 204.003 764.795 205.578 758.35 205.578C745.244 205.578 734.001 200.314 724.619 189.787C715.309 179.188 710.654 164.436 710.654 145.529C710.654 126.193 715.202 111.512 724.297 101.486C733.392 91.3887 744.886 86.3398 758.779 86.3398C771.527 86.3398 782.555 91.6393 791.865 102.238V45.5195H822.051V203ZM741.484 143.488C741.484 155.663 743.167 164.471 746.533 169.914C751.403 177.792 758.206 181.73 766.943 181.73C773.89 181.73 779.798 178.794 784.668 172.922C789.538 166.978 791.973 158.133 791.973 146.389C791.973 133.283 789.609 123.866 784.883 118.137C780.156 112.336 774.105 109.436 766.729 109.436C759.567 109.436 753.551 112.3 748.682 118.029C743.883 123.687 741.484 132.173 741.484 143.488ZM1017.77 203H989.736V186.242C985.081 192.759 979.567 197.629 973.193 200.852C966.891 204.003 960.518 205.578 954.072 205.578C940.967 205.578 929.723 200.314 920.342 189.787C911.032 179.188 906.377 164.436 906.377 145.529C906.377 126.193 910.924 111.512 920.02 101.486C929.115 91.3887 940.609 86.3398 954.502 86.3398C967.249 86.3398 978.278 91.6393 987.588 102.238V45.5195H1017.77V203ZM937.207 143.488C937.207 155.663 938.89 164.471 942.256 169.914C947.126 177.792 953.929 181.73 962.666 181.73C969.613 181.73 975.521 178.794 980.391 172.922C985.26 166.978 987.695 158.133 987.695 146.389C987.695 133.283 985.332 123.866 980.605 118.137C975.879 112.336 969.827 109.436 962.451 109.436C955.29 109.436 949.274 112.3 944.404 118.029C939.606 123.687 937.207 132.173 937.207 143.488ZM1070.2 123.723L1042.8 118.781C1045.88 107.753 1051.18 99.5885 1058.7 94.2891C1066.22 88.9896 1077.39 86.3398 1092.22 86.3398C1105.68 86.3398 1115.71 87.9512 1122.29 91.1738C1128.88 94.3249 1133.5 98.3711 1136.15 103.312C1138.87 108.182 1140.23 117.17 1140.23 130.275L1139.91 165.51C1139.91 175.536 1140.38 182.948 1141.31 187.746C1142.31 192.473 1144.14 197.557 1146.79 203H1116.92C1116.14 200.995 1115.17 198.023 1114.02 194.084C1113.52 192.294 1113.16 191.112 1112.95 190.539C1107.79 195.552 1102.28 199.312 1096.41 201.818C1090.53 204.325 1084.27 205.578 1077.61 205.578C1065.86 205.578 1056.59 202.391 1049.79 196.018C1043.05 189.644 1039.69 181.587 1039.69 171.848C1039.69 165.402 1041.23 159.673 1044.31 154.66C1047.39 149.576 1051.68 145.708 1057.2 143.059C1062.78 140.337 1070.8 137.974 1081.26 135.969C1095.37 133.319 1105.14 130.848 1110.59 128.557V125.549C1110.59 119.748 1109.15 115.63 1106.29 113.195C1103.42 110.689 1098.02 109.436 1090.07 109.436C1084.7 109.436 1080.51 110.51 1077.5 112.658C1074.49 114.735 1072.06 118.423 1070.2 123.723ZM1110.59 148.215C1106.72 149.504 1100.6 151.044 1092.22 152.834C1083.84 154.624 1078.36 156.379 1075.78 158.098C1071.84 160.891 1069.87 164.436 1069.87 168.732C1069.87 172.958 1071.45 176.61 1074.6 179.689C1077.75 182.769 1081.76 184.309 1086.63 184.309C1092.07 184.309 1097.27 182.518 1102.21 178.938C1105.86 176.216 1108.26 172.886 1109.4 168.947C1110.19 166.369 1110.59 161.464 1110.59 154.23V148.215ZM1222.41 88.918V112.98H1201.79V158.957C1201.79 168.267 1201.97 173.71 1202.32 175.285C1202.75 176.789 1203.65 178.042 1205.01 179.045C1206.44 180.048 1208.16 180.549 1210.17 180.549C1212.96 180.549 1217.01 179.582 1222.3 177.648L1224.88 201.066C1217.86 204.074 1209.92 205.578 1201.04 205.578C1195.59 205.578 1190.69 204.683 1186.32 202.893C1181.95 201.031 1178.73 198.667 1176.65 195.803C1174.65 192.867 1173.25 188.928 1172.46 183.986C1171.82 180.477 1171.49 173.387 1171.49 162.717V112.98H1157.64V88.918H1171.49V66.252L1201.79 48.6348V88.918H1222.41ZM1265.92 123.723L1238.53 118.781C1241.6 107.753 1246.9 99.5885 1254.42 94.2891C1261.94 88.9896 1273.12 86.3398 1287.94 86.3398C1301.4 86.3398 1311.43 87.9512 1318.02 91.1738C1324.61 94.3249 1329.23 98.3711 1331.88 103.312C1334.6 108.182 1335.96 117.17 1335.96 130.275L1335.63 165.51C1335.63 175.536 1336.1 182.948 1337.03 187.746C1338.03 192.473 1339.86 197.557 1342.51 203H1312.65C1311.86 200.995 1310.89 198.023 1309.75 194.084C1309.24 192.294 1308.89 191.112 1308.67 190.539C1303.52 195.552 1298 199.312 1292.13 201.818C1286.26 204.325 1279.99 205.578 1273.33 205.578C1261.59 205.578 1252.31 202.391 1245.51 196.018C1238.78 189.644 1235.41 181.587 1235.41 171.848C1235.41 165.402 1236.95 159.673 1240.03 154.66C1243.11 149.576 1247.41 145.708 1252.92 143.059C1258.51 140.337 1266.53 137.974 1276.98 135.969C1291.09 133.319 1300.87 130.848 1306.31 128.557V125.549C1306.31 119.748 1304.88 115.63 1302.01 113.195C1299.15 110.689 1293.74 109.436 1285.79 109.436C1280.42 109.436 1276.23 110.51 1273.22 112.658C1270.21 114.735 1267.78 118.423 1265.92 123.723ZM1306.31 148.215C1302.44 149.504 1296.32 151.044 1287.94 152.834C1279.56 154.624 1274.08 156.379 1271.5 158.098C1267.57 160.891 1265.6 164.436 1265.6 168.732C1265.6 172.958 1267.17 176.61 1270.32 179.689C1273.47 182.769 1277.48 184.309 1282.35 184.309C1287.8 184.309 1292.99 182.518 1297.93 178.938C1301.58 176.216 1303.98 172.886 1305.13 168.947C1305.91 166.369 1306.31 161.464 1306.31 154.23V148.215Z" fill="#3C3C3C"/>
<path d="M75.4688 298.52H138.418C150.879 298.52 160.153 299.057 166.24 300.131C172.399 301.133 177.878 303.282 182.676 306.576C187.546 309.87 191.592 314.275 194.814 319.789C198.037 325.232 199.648 331.355 199.648 338.158C199.648 345.535 197.643 352.302 193.633 358.461C189.694 364.62 184.323 369.239 177.52 372.318C187.116 375.111 194.492 379.874 199.648 386.605C204.805 393.337 207.383 401.251 207.383 410.346C207.383 417.507 205.7 424.49 202.334 431.293C199.04 438.025 194.492 443.432 188.691 447.514C182.962 451.524 175.872 453.995 167.422 454.926C162.122 455.499 149.339 455.857 129.072 456H75.4688V298.52ZM107.266 324.73V361.146H128.105C140.495 361.146 148.193 360.967 151.201 360.609C156.644 359.965 160.905 358.103 163.984 355.023C167.135 351.872 168.711 347.755 168.711 342.67C168.711 337.8 167.35 333.861 164.629 330.854C161.979 327.774 158.005 325.912 152.705 325.268C149.554 324.91 140.495 324.73 125.527 324.73H107.266ZM107.266 387.357V429.467H136.699C148.158 429.467 155.426 429.145 158.506 428.5C163.232 427.641 167.064 425.564 170 422.27C173.008 418.904 174.512 414.428 174.512 408.842C174.512 404.115 173.366 400.105 171.074 396.811C168.783 393.516 165.452 391.117 161.084 389.613C156.787 388.109 147.406 387.357 132.939 387.357H107.266ZM300.195 419.691L330.273 424.74C326.406 435.769 320.283 444.184 311.904 449.984C303.597 455.714 293.177 458.578 280.645 458.578C260.807 458.578 246.126 452.097 236.602 439.135C229.082 428.751 225.322 415.645 225.322 399.818C225.322 380.912 230.264 366.124 240.146 355.453C250.029 344.711 262.526 339.34 277.637 339.34C294.609 339.34 308.001 344.962 317.812 356.205C327.624 367.377 332.314 384.529 331.885 407.66H256.26C256.475 416.612 258.91 423.594 263.564 428.607C268.219 433.549 274.02 436.02 280.967 436.02C285.693 436.02 289.668 434.73 292.891 432.152C296.113 429.574 298.548 425.421 300.195 419.691ZM301.914 389.184C301.699 380.447 299.443 373.822 295.146 369.311C290.85 364.727 285.622 362.436 279.463 362.436C272.874 362.436 267.432 364.835 263.135 369.633C258.838 374.431 256.725 380.948 256.797 389.184H301.914ZM342.305 341.918H374.424L401.709 422.914L428.35 341.918H459.609L419.326 451.703L412.129 471.576C409.479 478.236 406.937 483.321 404.502 486.83C402.139 490.339 399.382 493.168 396.23 495.316C393.151 497.536 389.32 499.255 384.736 500.473C380.225 501.69 375.104 502.299 369.375 502.299C363.574 502.299 357.881 501.69 352.295 500.473L349.609 476.84C354.336 477.771 358.597 478.236 362.393 478.236C369.411 478.236 374.603 476.16 377.969 472.006C381.335 467.924 383.913 462.696 385.703 456.322L342.305 341.918ZM472.07 397.348C472.07 387.322 474.541 377.618 479.482 368.236C484.424 358.855 491.406 351.693 500.43 346.752C509.525 341.811 519.658 339.34 530.83 339.34C548.089 339.34 562.233 344.962 573.262 356.205C584.29 367.377 589.805 381.521 589.805 398.637C589.805 415.896 584.219 430.219 573.047 441.605C561.947 452.921 547.946 458.578 531.045 458.578C520.589 458.578 510.599 456.215 501.074 451.488C491.621 446.762 484.424 439.851 479.482 430.756C474.541 421.589 472.07 410.453 472.07 397.348ZM503.008 398.959C503.008 410.274 505.693 418.939 511.064 424.955C516.436 430.971 523.06 433.979 530.938 433.979C538.815 433.979 545.404 430.971 550.703 424.955C556.074 418.939 558.76 410.202 558.76 398.744C558.76 387.572 556.074 378.979 550.703 372.963C545.404 366.947 538.815 363.939 530.938 363.939C523.06 363.939 516.436 366.947 511.064 372.963C505.693 378.979 503.008 387.644 503.008 398.959ZM717.314 456H687.129V397.777C687.129 385.46 686.484 377.51 685.195 373.93C683.906 370.277 681.794 367.449 678.857 365.443C675.993 363.438 672.52 362.436 668.438 362.436C663.21 362.436 658.519 363.868 654.365 366.732C650.212 369.597 647.347 373.393 645.771 378.119C644.268 382.846 643.516 391.583 643.516 404.33V456H613.33V341.918H641.367V358.676C651.322 345.785 663.854 339.34 678.965 339.34C685.625 339.34 691.712 340.557 697.227 342.992C702.741 345.355 706.895 348.399 709.688 352.123C712.552 355.847 714.521 360.072 715.596 364.799C716.742 369.525 717.314 376.293 717.314 385.102V456ZM852.666 456H824.629V439.242C819.974 445.759 814.46 450.629 808.086 453.852C801.784 457.003 795.41 458.578 788.965 458.578C775.859 458.578 764.616 453.314 755.234 442.787C745.924 432.188 741.27 417.436 741.27 398.529C741.27 379.193 745.817 364.512 754.912 354.486C764.007 344.389 775.501 339.34 789.395 339.34C802.142 339.34 813.171 344.639 822.48 355.238V298.52H852.666V456ZM772.1 396.488C772.1 408.663 773.783 417.471 777.148 422.914C782.018 430.792 788.822 434.73 797.559 434.73C804.505 434.73 810.413 431.794 815.283 425.922C820.153 419.978 822.588 411.133 822.588 399.389C822.588 386.283 820.225 376.866 815.498 371.137C810.771 365.336 804.72 362.436 797.344 362.436C790.182 362.436 784.167 365.3 779.297 371.029C774.499 376.687 772.1 385.173 772.1 396.488ZM1048.39 456H1020.35V439.242C1015.7 445.759 1010.18 450.629 1003.81 453.852C997.507 457.003 991.133 458.578 984.688 458.578C971.582 458.578 960.339 453.314 950.957 442.787C941.647 432.188 936.992 417.436 936.992 398.529C936.992 379.193 941.54 364.512 950.635 354.486C959.73 344.389 971.224 339.34 985.117 339.34C997.865 339.34 1008.89 344.639 1018.2 355.238V298.52H1048.39V456ZM967.822 396.488C967.822 408.663 969.505 417.471 972.871 422.914C977.741 430.792 984.544 434.73 993.281 434.73C1000.23 434.73 1006.14 431.794 1011.01 425.922C1015.88 419.978 1018.31 411.133 1018.31 399.389C1018.31 386.283 1015.95 376.866 1011.22 371.137C1006.49 365.336 1000.44 362.436 993.066 362.436C985.905 362.436 979.889 365.3 975.02 371.029C970.221 376.687 967.822 385.173 967.822 396.488ZM1100.81 376.723L1073.42 371.781C1076.5 360.753 1081.8 352.589 1089.32 347.289C1096.84 341.99 1108.01 339.34 1122.83 339.34C1136.3 339.34 1146.32 340.951 1152.91 344.174C1159.5 347.325 1164.12 351.371 1166.77 356.312C1169.49 361.182 1170.85 370.17 1170.85 383.275L1170.53 418.51C1170.53 428.536 1170.99 435.948 1171.92 440.746C1172.93 445.473 1174.75 450.557 1177.4 456H1147.54C1146.75 453.995 1145.78 451.023 1144.64 447.084C1144.14 445.294 1143.78 444.112 1143.56 443.539C1138.41 448.552 1132.89 452.312 1127.02 454.818C1121.15 457.325 1114.88 458.578 1108.22 458.578C1096.48 458.578 1087.2 455.391 1080.4 449.018C1073.67 442.644 1070.3 434.587 1070.3 424.848C1070.3 418.402 1071.84 412.673 1074.92 407.66C1078 402.576 1082.3 398.708 1087.81 396.059C1093.4 393.337 1101.42 390.974 1111.88 388.969C1125.98 386.319 1135.76 383.848 1141.2 381.557V378.549C1141.2 372.748 1139.77 368.63 1136.9 366.195C1134.04 363.689 1128.63 362.436 1120.68 362.436C1115.31 362.436 1111.12 363.51 1108.12 365.658C1105.11 367.735 1102.67 371.423 1100.81 376.723ZM1141.2 401.215C1137.33 402.504 1131.21 404.044 1122.83 405.834C1114.45 407.624 1108.97 409.379 1106.4 411.098C1102.46 413.891 1100.49 417.436 1100.49 421.732C1100.49 425.958 1102.06 429.61 1105.21 432.689C1108.37 435.769 1112.38 437.309 1117.25 437.309C1122.69 437.309 1127.88 435.518 1132.82 431.938C1136.47 429.216 1138.87 425.886 1140.02 421.947C1140.81 419.369 1141.2 414.464 1141.2 407.23V401.215ZM1253.03 341.918V365.98H1232.4V411.957C1232.4 421.267 1232.58 426.71 1232.94 428.285C1233.37 429.789 1234.26 431.042 1235.62 432.045C1237.06 433.048 1238.78 433.549 1240.78 433.549C1243.57 433.549 1247.62 432.582 1252.92 430.648L1255.5 454.066C1248.48 457.074 1240.53 458.578 1231.65 458.578C1226.21 458.578 1221.3 457.683 1216.93 455.893C1212.57 454.031 1209.34 451.667 1207.27 448.803C1205.26 445.867 1203.86 441.928 1203.08 436.986C1202.43 433.477 1202.11 426.387 1202.11 415.717V365.98H1188.25V341.918H1202.11V319.252L1232.4 301.635V341.918H1253.03ZM1296.53 376.723L1269.14 371.781C1272.22 360.753 1277.52 352.589 1285.04 347.289C1292.56 341.99 1303.73 339.34 1318.55 339.34C1332.02 339.34 1342.04 340.951 1348.63 344.174C1355.22 347.325 1359.84 351.371 1362.49 356.312C1365.21 361.182 1366.57 370.17 1366.57 383.275L1366.25 418.51C1366.25 428.536 1366.72 435.948 1367.65 440.746C1368.65 445.473 1370.48 450.557 1373.12 456H1343.26C1342.47 453.995 1341.51 451.023 1340.36 447.084C1339.86 445.294 1339.5 444.112 1339.29 443.539C1334.13 448.552 1328.62 452.312 1322.74 454.818C1316.87 457.325 1310.61 458.578 1303.95 458.578C1292.2 458.578 1282.93 455.391 1276.12 449.018C1269.39 442.644 1266.03 434.587 1266.03 424.848C1266.03 418.402 1267.57 412.673 1270.64 407.66C1273.72 402.576 1278.02 398.708 1283.54 396.059C1289.12 393.337 1297.14 390.974 1307.6 388.969C1321.71 386.319 1331.48 383.848 1336.92 381.557V378.549C1336.92 372.748 1335.49 368.63 1332.63 366.195C1329.76 363.689 1324.36 362.436 1316.41 362.436C1311.04 362.436 1306.85 363.51 1303.84 365.658C1300.83 367.735 1298.4 371.423 1296.53 376.723ZM1336.92 401.215C1333.06 402.504 1326.93 404.044 1318.55 405.834C1310.18 407.624 1304.7 409.379 1302.12 411.098C1298.18 413.891 1296.21 417.436 1296.21 421.732C1296.21 425.958 1297.79 429.61 1300.94 432.689C1304.09 435.769 1308.1 437.309 1312.97 437.309C1318.41 437.309 1323.6 435.518 1328.54 431.938C1332.2 429.216 1334.6 425.886 1335.74 421.947C1336.53 419.369 1336.92 414.464 1336.92 407.23V401.215Z" fill="#3C3C3C"/>
</svg>
