<svg width="1440" height="1203" viewBox="0 0 1440 1203" fill="none" xmlns="http://www.w3.org/2000/svg">
<path d="M124.131 38.5195H182.246C195.352 38.5195 205.342 39.5221 212.217 41.5273C221.455 44.2487 229.368 49.0827 235.957 56.0293C242.546 62.9759 247.559 71.498 250.996 81.5957C254.434 91.6217 256.152 104.011 256.152 118.764C256.152 131.726 254.541 142.898 251.318 152.279C247.38 163.738 241.758 173.012 234.453 180.102C228.939 185.473 221.491 189.662 212.109 192.67C205.091 194.89 195.71 196 183.965 196H124.131V38.5195ZM155.928 65.1602V169.467H179.668C188.548 169.467 194.958 168.965 198.896 167.963C204.053 166.674 208.314 164.49 211.68 161.41C215.117 158.331 217.91 153.282 220.059 146.264C222.207 139.174 223.281 129.542 223.281 117.367C223.281 105.193 222.207 95.847 220.059 89.3301C217.91 82.8132 214.902 77.7285 211.035 74.0762C207.168 70.4238 202.262 67.9531 196.318 66.6641C191.878 65.6615 183.177 65.1602 170.215 65.1602H155.928ZM305.566 116.723L278.174 111.781C281.253 100.753 286.553 92.5885 294.072 87.2891C301.592 81.9896 312.764 79.3398 327.588 79.3398C341.051 79.3398 351.077 80.9512 357.666 84.1738C364.255 87.3249 368.874 91.3711 371.523 96.3125C374.245 101.182 375.605 110.17 375.605 123.275L375.283 158.51C375.283 168.536 375.749 175.948 376.68 180.746C377.682 185.473 379.508 190.557 382.158 196H352.295C351.507 193.995 350.54 191.023 349.395 187.084C348.893 185.294 348.535 184.112 348.32 183.539C343.164 188.552 337.65 192.312 331.777 194.818C325.905 197.325 319.639 198.578 312.979 198.578C301.234 198.578 291.96 195.391 285.156 189.018C278.424 182.644 275.059 174.587 275.059 164.848C275.059 158.402 276.598 152.673 279.678 147.66C282.757 142.576 287.054 138.708 292.568 136.059C298.154 133.337 306.175 130.974 316.631 128.969C330.739 126.319 340.514 123.848 345.957 121.557V118.549C345.957 112.748 344.525 108.63 341.66 106.195C338.796 103.689 333.389 102.436 325.439 102.436C320.068 102.436 315.879 103.51 312.871 105.658C309.863 107.735 307.428 111.423 305.566 116.723ZM345.957 141.215C342.09 142.504 335.967 144.044 327.588 145.834C319.209 147.624 313.73 149.379 311.152 151.098C307.214 153.891 305.244 157.436 305.244 161.732C305.244 165.958 306.82 169.61 309.971 172.689C313.122 175.769 317.132 177.309 322.002 177.309C327.445 177.309 332.637 175.518 337.578 171.938C341.23 169.216 343.63 165.886 344.775 161.947C345.563 159.369 345.957 154.464 345.957 147.23V141.215ZM457.783 81.918V105.98H437.158V151.957C437.158 161.267 437.337 166.71 437.695 168.285C438.125 169.789 439.02 171.042 440.381 172.045C441.813 173.048 443.532 173.549 445.537 173.549C448.33 173.549 452.376 172.582 457.676 170.648L460.254 194.066C453.236 197.074 445.286 198.578 436.406 198.578C430.964 198.578 426.058 197.683 421.689 195.893C417.321 194.031 414.098 191.667 412.021 188.803C410.016 185.867 408.62 181.928 407.832 176.986C407.188 173.477 406.865 166.387 406.865 155.717V105.98H393.008V81.918H406.865V59.252L437.158 41.6348V81.918H457.783ZM501.289 116.723L473.896 111.781C476.976 100.753 482.275 92.5885 489.795 87.2891C497.314 81.9896 508.486 79.3398 523.311 79.3398C536.774 79.3398 546.8 80.9512 553.389 84.1738C559.977 87.3249 564.596 91.3711 567.246 96.3125C569.967 101.182 571.328 110.17 571.328 123.275L571.006 158.51C571.006 168.536 571.471 175.948 572.402 180.746C573.405 185.473 575.231 190.557 577.881 196H548.018C547.23 193.995 546.263 191.023 545.117 187.084C544.616 185.294 544.258 184.112 544.043 183.539C538.887 188.552 533.372 192.312 527.5 194.818C521.628 197.325 515.361 198.578 508.701 198.578C496.956 198.578 487.682 195.391 480.879 189.018C474.147 182.644 470.781 174.587 470.781 164.848C470.781 158.402 472.321 152.673 475.4 147.66C478.48 142.576 482.777 138.708 488.291 136.059C493.877 133.337 501.898 130.974 512.354 128.969C526.462 126.319 536.237 123.848 541.68 121.557V118.549C541.68 112.748 540.247 108.63 537.383 106.195C534.518 103.689 529.111 102.436 521.162 102.436C515.791 102.436 511.602 103.51 508.594 105.658C505.586 107.735 503.151 111.423 501.289 116.723ZM541.68 141.215C537.812 142.504 531.689 144.044 523.311 145.834C514.932 147.624 509.453 149.379 506.875 151.098C502.936 153.891 500.967 157.436 500.967 161.732C500.967 165.958 502.542 169.61 505.693 172.689C508.844 175.769 512.855 177.309 517.725 177.309C523.167 177.309 528.359 175.518 533.301 171.938C536.953 169.216 539.352 165.886 540.498 161.947C541.286 159.369 541.68 154.464 541.68 147.23V141.215ZM651.787 163.451L682.08 158.832C683.369 164.704 685.983 169.18 689.922 172.26C693.861 175.268 699.375 176.771 706.465 176.771C714.271 176.771 720.143 175.339 724.082 172.475C726.732 170.469 728.057 167.784 728.057 164.418C728.057 162.126 727.34 160.229 725.908 158.725C724.404 157.292 721.038 155.967 715.811 154.75C691.462 149.379 676.029 144.473 669.512 140.033C660.488 133.874 655.977 125.316 655.977 114.359C655.977 104.477 659.88 96.1693 667.686 89.4375C675.492 82.7057 687.594 79.3398 703.994 79.3398C719.606 79.3398 731.208 81.8822 738.799 86.9668C746.39 92.0514 751.618 99.571 754.482 109.525L726.016 114.789C724.798 110.349 722.471 106.947 719.033 104.584C715.667 102.221 710.833 101.039 704.531 101.039C696.582 101.039 690.889 102.149 687.451 104.369C685.16 105.945 684.014 107.986 684.014 110.492C684.014 112.641 685.016 114.467 687.021 115.971C689.743 117.976 699.124 120.805 715.166 124.457C731.279 128.109 742.523 132.585 748.896 137.885C755.199 143.256 758.35 150.74 758.35 160.336C758.35 170.792 753.981 179.779 745.244 187.299C736.507 194.818 723.581 198.578 706.465 198.578C690.924 198.578 678.607 195.427 669.512 189.125C660.488 182.823 654.58 174.265 651.787 163.451ZM814.961 38.5195V96.4199C824.701 85.0332 836.338 79.3398 849.873 79.3398C856.82 79.3398 863.086 80.6289 868.672 83.207C874.258 85.7852 878.447 89.0794 881.24 93.0898C884.105 97.1003 886.038 101.54 887.041 106.41C888.115 111.28 888.652 118.835 888.652 129.076V196H858.467V135.736C858.467 123.777 857.894 116.186 856.748 112.963C855.602 109.74 853.561 107.198 850.625 105.336C847.76 103.402 844.144 102.436 839.775 102.436C834.762 102.436 830.286 103.653 826.348 106.088C822.409 108.523 819.508 112.211 817.646 117.152C815.856 122.022 814.961 129.255 814.961 138.852V196H784.775V38.5195H814.961ZM912.393 137.348C912.393 127.322 914.863 117.618 919.805 108.236C924.746 98.8548 931.729 91.6934 940.752 86.752C949.847 81.8105 959.98 79.3398 971.152 79.3398C988.411 79.3398 1002.56 84.9616 1013.58 96.2051C1024.61 107.377 1030.13 121.521 1030.13 138.637C1030.13 155.896 1024.54 170.219 1013.37 181.605C1002.27 192.921 988.268 198.578 971.367 198.578C960.911 198.578 950.921 196.215 941.396 191.488C931.943 186.762 924.746 179.851 919.805 170.756C914.863 161.589 912.393 150.453 912.393 137.348ZM943.33 138.959C943.33 150.274 946.016 158.939 951.387 164.955C956.758 170.971 963.382 173.979 971.26 173.979C979.137 173.979 985.726 170.971 991.025 164.955C996.396 158.939 999.082 150.202 999.082 138.744C999.082 127.572 996.396 118.979 991.025 112.963C985.726 106.947 979.137 103.939 971.26 103.939C963.382 103.939 956.758 106.947 951.387 112.963C946.016 118.979 943.33 127.644 943.33 138.959ZM1075.14 196L1039.04 81.918H1068.37L1089.75 156.684L1109.4 81.918H1138.52L1157.53 156.684L1179.34 81.918H1209.09L1172.46 196H1143.46L1123.8 122.631L1104.46 196H1075.14ZM1214.46 163.451L1244.76 158.832C1246.04 164.704 1248.66 169.18 1252.6 172.26C1256.54 175.268 1262.05 176.771 1269.14 176.771C1276.95 176.771 1282.82 175.339 1286.76 172.475C1289.41 170.469 1290.73 167.784 1290.73 164.418C1290.73 162.126 1290.02 160.229 1288.58 158.725C1287.08 157.292 1283.71 155.967 1278.49 154.75C1254.14 149.379 1238.7 144.473 1232.19 140.033C1223.16 133.874 1218.65 125.316 1218.65 114.359C1218.65 104.477 1222.56 96.1693 1230.36 89.4375C1238.17 82.7057 1250.27 79.3398 1266.67 79.3398C1282.28 79.3398 1293.88 81.8822 1301.47 86.9668C1309.07 92.0514 1314.29 99.571 1317.16 109.525L1288.69 114.789C1287.47 110.349 1285.15 106.947 1281.71 104.584C1278.34 102.221 1273.51 101.039 1267.21 101.039C1259.26 101.039 1253.56 102.149 1250.13 104.369C1247.84 105.945 1246.69 107.986 1246.69 110.492C1246.69 112.641 1247.69 114.467 1249.7 115.971C1252.42 117.976 1261.8 120.805 1277.84 124.457C1293.96 128.109 1305.2 132.585 1311.57 137.885C1317.87 143.256 1321.03 150.74 1321.03 160.336C1321.03 170.792 1316.66 179.779 1307.92 187.299C1299.18 194.818 1286.26 198.578 1269.14 198.578C1253.6 198.578 1241.28 195.427 1232.19 189.125C1223.16 182.823 1217.26 174.265 1214.46 163.451ZM344.023 436H313.838V377.777C313.838 365.46 313.193 357.51 311.904 353.93C310.615 350.277 308.503 347.449 305.566 345.443C302.702 343.438 299.229 342.436 295.146 342.436C289.919 342.436 285.228 343.868 281.074 346.732C276.921 349.597 274.056 353.393 272.48 358.119C270.977 362.846 270.225 371.583 270.225 384.33V436H240.039V321.918H268.076V338.676C278.031 325.785 290.563 319.34 305.674 319.34C312.334 319.34 318.421 320.557 323.936 322.992C329.45 325.355 333.604 328.399 336.396 332.123C339.261 335.847 341.23 340.072 342.305 344.799C343.451 349.525 344.023 356.293 344.023 365.102V436ZM449.834 436V418.92C445.68 425.007 440.202 429.805 433.398 433.314C426.667 436.824 419.541 438.578 412.021 438.578C404.359 438.578 397.484 436.895 391.396 433.529C385.309 430.163 380.905 425.437 378.184 419.35C375.462 413.262 374.102 404.848 374.102 394.105V321.918H404.287V374.34C404.287 390.382 404.824 400.229 405.898 403.881C407.044 407.462 409.085 410.326 412.021 412.475C414.958 414.551 418.682 415.59 423.193 415.59C428.35 415.59 432.969 414.193 437.051 411.4C441.133 408.536 443.926 405.027 445.43 400.873C446.934 396.648 447.686 386.371 447.686 370.043V321.918H477.871V436H449.834ZM506.982 321.918H534.805V337.494C544.759 325.391 556.611 319.34 570.361 319.34C577.666 319.34 584.004 320.844 589.375 323.852C594.746 326.859 599.15 331.407 602.588 337.494C607.601 331.407 613.008 326.859 618.809 323.852C624.609 320.844 630.804 319.34 637.393 319.34C645.771 319.34 652.861 321.059 658.662 324.496C664.463 327.862 668.796 332.839 671.66 339.428C673.737 344.298 674.775 352.175 674.775 363.061V436H644.59V370.795C644.59 359.48 643.551 352.175 641.475 348.881C638.682 344.584 634.385 342.436 628.584 342.436C624.359 342.436 620.384 343.725 616.66 346.303C612.936 348.881 610.251 352.676 608.604 357.689C606.956 362.631 606.133 370.473 606.133 381.215V436H575.947V373.48C575.947 362.38 575.41 355.219 574.336 351.996C573.262 348.773 571.579 346.374 569.287 344.799C567.067 343.223 564.023 342.436 560.156 342.436C555.501 342.436 551.312 343.689 547.588 346.195C543.864 348.702 541.178 352.318 539.531 357.045C537.956 361.771 537.168 369.613 537.168 380.57V436H506.982V321.918ZM703.672 436V278.52H733.857V335.238C743.167 324.639 754.196 319.34 766.943 319.34C780.837 319.34 792.331 324.389 801.426 334.486C810.521 344.512 815.068 358.943 815.068 377.777C815.068 397.257 810.413 412.26 801.104 422.787C791.865 433.314 780.622 438.578 767.373 438.578C760.856 438.578 754.411 436.967 748.037 433.744C741.735 430.45 736.292 425.616 731.709 419.242V436H703.672ZM733.643 376.488C733.643 388.305 735.505 397.042 739.229 402.699C744.456 410.72 751.403 414.73 760.068 414.73C766.729 414.73 772.386 411.902 777.041 406.244C781.768 400.515 784.131 391.527 784.131 379.281C784.131 366.247 781.768 356.866 777.041 351.137C772.314 345.336 766.263 342.436 758.887 342.436C751.654 342.436 745.638 345.264 740.84 350.922C736.042 356.508 733.643 365.03 733.643 376.488ZM905.518 399.691L935.596 404.74C931.729 415.769 925.605 424.184 917.227 429.984C908.919 435.714 898.499 438.578 885.967 438.578C866.13 438.578 851.449 432.097 841.924 419.135C834.404 408.751 830.645 395.645 830.645 379.818C830.645 360.912 835.586 346.124 845.469 335.453C855.352 324.711 867.848 319.34 882.959 319.34C899.932 319.34 913.324 324.962 923.135 336.205C932.946 347.377 937.637 364.529 937.207 387.66H861.582C861.797 396.612 864.232 403.594 868.887 408.607C873.542 413.549 879.342 416.02 886.289 416.02C891.016 416.02 894.99 414.73 898.213 412.152C901.436 409.574 903.87 405.421 905.518 399.691ZM907.236 369.184C907.021 360.447 904.766 353.822 900.469 349.311C896.172 344.727 890.944 342.436 884.785 342.436C878.197 342.436 872.754 344.835 868.457 349.633C864.16 354.431 862.048 360.948 862.119 369.184H907.236ZM990.811 436H960.625V321.918H988.662V338.139C993.46 330.476 997.757 325.427 1001.55 322.992C1005.42 320.557 1009.79 319.34 1014.66 319.34C1021.53 319.34 1028.16 321.238 1034.53 325.033L1025.19 351.352C1020.1 348.057 1015.37 346.41 1011.01 346.41C1006.78 346.41 1003.2 347.592 1000.26 349.955C997.327 352.247 995 356.436 993.281 362.523C991.634 368.611 990.811 381.358 990.811 400.766V436ZM1037 403.451L1067.29 398.832C1068.58 404.704 1071.2 409.18 1075.14 412.26C1079.08 415.268 1084.59 416.771 1091.68 416.771C1099.49 416.771 1105.36 415.339 1109.3 412.475C1111.95 410.469 1113.27 407.784 1113.27 404.418C1113.27 402.126 1112.56 400.229 1111.12 398.725C1109.62 397.292 1106.25 395.967 1101.03 394.75C1076.68 389.379 1061.24 384.473 1054.73 380.033C1045.7 373.874 1041.19 365.316 1041.19 354.359C1041.19 344.477 1045.09 336.169 1052.9 329.438C1060.71 322.706 1072.81 319.34 1089.21 319.34C1104.82 319.34 1116.42 321.882 1124.01 326.967C1131.6 332.051 1136.83 339.571 1139.7 349.525L1111.23 354.789C1110.01 350.349 1107.69 346.947 1104.25 344.584C1100.88 342.221 1096.05 341.039 1089.75 341.039C1081.8 341.039 1076.1 342.149 1072.67 344.369C1070.37 345.945 1069.23 347.986 1069.23 350.492C1069.23 352.641 1070.23 354.467 1072.24 355.971C1074.96 357.976 1084.34 360.805 1100.38 364.457C1116.49 368.109 1127.74 372.585 1134.11 377.885C1140.41 383.256 1143.56 390.74 1143.56 400.336C1143.56 410.792 1139.2 419.779 1130.46 427.299C1121.72 434.818 1108.8 438.578 1091.68 438.578C1076.14 438.578 1063.82 435.427 1054.73 429.125C1045.7 422.823 1039.79 414.265 1037 403.451ZM1170.1 436V405.814H1200.28V436H1170.1ZM234.561 676V518.52H266.357V580.502H328.662V518.52H360.459V676H328.662V607.143H266.357V676H234.561ZM468.311 676V658.92C464.157 665.007 458.678 669.805 451.875 673.314C445.143 676.824 438.018 678.578 430.498 678.578C422.835 678.578 415.96 676.895 409.873 673.529C403.786 670.163 399.382 665.437 396.66 659.35C393.939 653.262 392.578 644.848 392.578 634.105V561.918H422.764V614.34C422.764 630.382 423.301 640.229 424.375 643.881C425.521 647.462 427.562 650.326 430.498 652.475C433.434 654.551 437.158 655.59 441.67 655.59C446.826 655.59 451.445 654.193 455.527 651.4C459.609 648.536 462.402 645.027 463.906 640.873C465.41 636.648 466.162 626.371 466.162 610.043V561.918H496.348V676H468.311ZM525.459 561.918H553.281V577.494C563.236 565.391 575.088 559.34 588.838 559.34C596.143 559.34 602.48 560.844 607.852 563.852C613.223 566.859 617.627 571.407 621.064 577.494C626.077 571.407 631.484 566.859 637.285 563.852C643.086 560.844 649.281 559.34 655.869 559.34C664.248 559.34 671.338 561.059 677.139 564.496C682.939 567.862 687.272 572.839 690.137 579.428C692.214 584.298 693.252 592.175 693.252 603.061V676H663.066V610.795C663.066 599.48 662.028 592.175 659.951 588.881C657.158 584.584 652.861 582.436 647.061 582.436C642.835 582.436 638.861 583.725 635.137 586.303C631.413 588.881 628.727 592.676 627.08 597.689C625.433 602.631 624.609 610.473 624.609 621.215V676H594.424V613.48C594.424 602.38 593.887 595.219 592.812 591.996C591.738 588.773 590.055 586.374 587.764 584.799C585.544 583.223 582.5 582.436 578.633 582.436C573.978 582.436 569.788 583.689 566.064 586.195C562.34 588.702 559.655 592.318 558.008 597.045C556.432 601.771 555.645 609.613 555.645 620.57V676H525.459V561.918ZM745.996 596.723L718.604 591.781C721.683 580.753 726.982 572.589 734.502 567.289C742.021 561.99 753.193 559.34 768.018 559.34C781.481 559.34 791.507 560.951 798.096 564.174C804.684 567.325 809.303 571.371 811.953 576.312C814.674 581.182 816.035 590.17 816.035 603.275L815.713 638.51C815.713 648.536 816.178 655.948 817.109 660.746C818.112 665.473 819.938 670.557 822.588 676H792.725C791.937 673.995 790.97 671.023 789.824 667.084C789.323 665.294 788.965 664.112 788.75 663.539C783.594 668.552 778.079 672.312 772.207 674.818C766.335 677.325 760.068 678.578 753.408 678.578C741.663 678.578 732.389 675.391 725.586 669.018C718.854 662.644 715.488 654.587 715.488 644.848C715.488 638.402 717.028 632.673 720.107 627.66C723.187 622.576 727.484 618.708 732.998 616.059C738.584 613.337 746.605 610.974 757.061 608.969C771.169 606.319 780.944 603.848 786.387 601.557V598.549C786.387 592.748 784.954 588.63 782.09 586.195C779.225 583.689 773.818 582.436 765.869 582.436C760.498 582.436 756.309 583.51 753.301 585.658C750.293 587.735 747.858 591.423 745.996 596.723ZM786.387 621.215C782.52 622.504 776.396 624.044 768.018 625.834C759.639 627.624 754.16 629.379 751.582 631.098C747.643 633.891 745.674 637.436 745.674 641.732C745.674 645.958 747.249 649.61 750.4 652.689C753.551 655.769 757.562 657.309 762.432 657.309C767.874 657.309 773.066 655.518 778.008 651.938C781.66 649.216 784.059 645.886 785.205 641.947C785.993 639.369 786.387 634.464 786.387 627.23V621.215ZM949.668 676H919.482V617.777C919.482 605.46 918.838 597.51 917.549 593.93C916.26 590.277 914.147 587.449 911.211 585.443C908.346 583.438 904.873 582.436 900.791 582.436C895.563 582.436 890.872 583.868 886.719 586.732C882.565 589.597 879.701 593.393 878.125 598.119C876.621 602.846 875.869 611.583 875.869 624.33V676H845.684V561.918H873.721V578.676C883.675 565.785 896.208 559.34 911.318 559.34C917.979 559.34 924.066 560.557 929.58 562.992C935.094 565.355 939.248 568.399 942.041 572.123C944.906 575.847 946.875 580.072 947.949 584.799C949.095 589.525 949.668 596.293 949.668 605.102V676ZM980.391 546.449V518.52H1010.58V546.449H980.391ZM980.391 676V561.918H1010.58V676H980.391ZM1093.94 561.918V585.98H1073.31V631.957C1073.31 641.267 1073.49 646.71 1073.85 648.285C1074.28 649.789 1075.17 651.042 1076.53 652.045C1077.97 653.048 1079.68 653.549 1081.69 653.549C1084.48 653.549 1088.53 652.582 1093.83 650.648L1096.41 674.066C1089.39 677.074 1081.44 678.578 1072.56 678.578C1067.12 678.578 1062.21 677.683 1057.84 675.893C1053.47 674.031 1050.25 671.667 1048.17 668.803C1046.17 665.867 1044.77 661.928 1043.98 656.986C1043.34 653.477 1043.02 646.387 1043.02 635.717V585.98H1029.16V561.918H1043.02V539.252L1073.31 521.635V561.918H1093.94ZM1100.6 561.918H1132.71L1160 642.914L1186.64 561.918H1217.9L1177.62 671.703L1170.42 691.576C1167.77 698.236 1165.23 703.321 1162.79 706.83C1160.43 710.339 1157.67 713.168 1154.52 715.316C1151.44 717.536 1147.61 719.255 1143.03 720.473C1138.52 721.69 1133.4 722.299 1127.67 722.299C1121.87 722.299 1116.17 721.69 1110.59 720.473L1107.9 696.84C1112.63 697.771 1116.89 698.236 1120.68 698.236C1127.7 698.236 1132.89 696.16 1136.26 692.006C1139.63 687.924 1142.2 682.696 1143.99 676.322L1100.6 561.918ZM157.861 923.52L192.344 927.709C192.917 931.719 194.242 934.477 196.318 935.98C199.183 938.129 203.695 939.203 209.854 939.203C217.731 939.203 223.639 938.021 227.578 935.658C230.228 934.083 232.233 931.54 233.594 928.031C234.525 925.525 234.99 920.906 234.99 914.174V897.523C225.967 909.841 214.58 916 200.83 916C185.505 916 173.366 909.519 164.414 896.557C157.396 886.316 153.887 873.568 153.887 858.314C153.887 839.193 158.47 824.584 167.637 814.486C176.875 804.389 188.333 799.34 202.012 799.34C216.12 799.34 227.757 805.535 236.924 817.924V801.918H265.176V904.291C265.176 917.755 264.066 927.816 261.846 934.477C259.626 941.137 256.51 946.365 252.5 950.16C248.49 953.956 243.118 956.928 236.387 959.076C229.727 961.225 221.276 962.299 211.035 962.299C191.699 962.299 177.985 958.969 169.893 952.309C161.8 945.72 157.754 937.341 157.754 927.172C157.754 926.169 157.79 924.952 157.861 923.52ZM184.824 856.596C184.824 868.699 187.152 877.579 191.807 883.236C196.533 888.822 202.334 891.615 209.209 891.615C216.585 891.615 222.816 888.751 227.9 883.021C232.985 877.221 235.527 868.663 235.527 857.348C235.527 845.531 233.092 836.758 228.223 831.029C223.353 825.3 217.194 822.436 209.746 822.436C202.513 822.436 196.533 825.264 191.807 830.922C187.152 836.508 184.824 845.066 184.824 856.596ZM295.146 786.449V758.52H325.332V786.449H295.146ZM295.146 916V801.918H325.332V916H295.146ZM387.744 916L341.768 801.918H373.457L394.941 860.141L401.172 879.584C402.819 874.643 403.857 871.384 404.287 869.809C405.29 866.586 406.364 863.363 407.51 860.141L429.209 801.918H460.254L414.922 916H387.744ZM544.902 879.691L574.98 884.74C571.113 895.769 564.99 904.184 556.611 909.984C548.304 915.714 537.884 918.578 525.352 918.578C505.514 918.578 490.833 912.097 481.309 899.135C473.789 888.751 470.029 875.645 470.029 859.818C470.029 840.912 474.971 826.124 484.854 815.453C494.736 804.711 507.233 799.34 522.344 799.34C539.316 799.34 552.708 804.962 562.52 816.205C572.331 827.377 577.021 844.529 576.592 867.66H500.967C501.182 876.612 503.617 883.594 508.271 888.607C512.926 893.549 518.727 896.02 525.674 896.02C530.4 896.02 534.375 894.73 537.598 892.152C540.82 889.574 543.255 885.421 544.902 879.691ZM546.621 849.184C546.406 840.447 544.15 833.822 539.854 829.311C535.557 824.727 530.329 822.436 524.17 822.436C517.581 822.436 512.139 824.835 507.842 829.633C503.545 834.431 501.432 840.948 501.504 849.184H546.621ZM590.664 883.451L620.957 878.832C622.246 884.704 624.86 889.18 628.799 892.26C632.738 895.268 638.252 896.771 645.342 896.771C653.148 896.771 659.02 895.339 662.959 892.475C665.609 890.469 666.934 887.784 666.934 884.418C666.934 882.126 666.217 880.229 664.785 878.725C663.281 877.292 659.915 875.967 654.688 874.75C630.339 869.379 614.906 864.473 608.389 860.033C599.365 853.874 594.854 845.316 594.854 834.359C594.854 824.477 598.757 816.169 606.562 809.438C614.368 802.706 626.471 799.34 642.871 799.34C658.483 799.34 670.085 801.882 677.676 806.967C685.267 812.051 690.495 819.571 693.359 829.525L664.893 834.789C663.675 830.349 661.348 826.947 657.91 824.584C654.544 822.221 649.71 821.039 643.408 821.039C635.459 821.039 629.766 822.149 626.328 824.369C624.036 825.945 622.891 827.986 622.891 830.492C622.891 832.641 623.893 834.467 625.898 835.971C628.62 837.976 638.001 840.805 654.043 844.457C670.156 848.109 681.4 852.585 687.773 857.885C694.076 863.256 697.227 870.74 697.227 880.336C697.227 890.792 692.858 899.779 684.121 907.299C675.384 914.818 662.458 918.578 645.342 918.578C629.801 918.578 617.484 915.427 608.389 909.125C599.365 902.823 593.457 894.265 590.664 883.451ZM837.305 801.918V825.98H816.68V871.957C816.68 881.267 816.859 886.71 817.217 888.285C817.646 889.789 818.542 891.042 819.902 892.045C821.335 893.048 823.053 893.549 825.059 893.549C827.852 893.549 831.898 892.582 837.197 890.648L839.775 914.066C832.757 917.074 824.808 918.578 815.928 918.578C810.485 918.578 805.579 917.683 801.211 915.893C796.842 914.031 793.62 911.667 791.543 908.803C789.538 905.867 788.141 901.928 787.354 896.986C786.709 893.477 786.387 886.387 786.387 875.717V825.98H772.529V801.918H786.387V779.252L816.68 761.635V801.918H837.305ZM888.33 758.52V816.42C898.07 805.033 909.707 799.34 923.242 799.34C930.189 799.34 936.455 800.629 942.041 803.207C947.627 805.785 951.816 809.079 954.609 813.09C957.474 817.1 959.408 821.54 960.41 826.41C961.484 831.28 962.021 838.835 962.021 849.076V916H931.836V855.736C931.836 843.777 931.263 836.186 930.117 832.963C928.971 829.74 926.93 827.198 923.994 825.336C921.13 823.402 917.513 822.436 913.145 822.436C908.132 822.436 903.656 823.653 899.717 826.088C895.778 828.523 892.878 832.211 891.016 837.152C889.225 842.022 888.33 849.255 888.33 858.852V916H858.145V758.52H888.33ZM1058.81 879.691L1088.89 884.74C1085.02 895.769 1078.9 904.184 1070.52 909.984C1062.21 915.714 1051.79 918.578 1039.26 918.578C1019.42 918.578 1004.74 912.097 995.215 899.135C987.695 888.751 983.936 875.645 983.936 859.818C983.936 840.912 988.877 826.124 998.76 815.453C1008.64 804.711 1021.14 799.34 1036.25 799.34C1053.22 799.34 1066.61 804.962 1076.43 816.205C1086.24 827.377 1090.93 844.529 1090.5 867.66H1014.87C1015.09 876.612 1017.52 883.594 1022.18 888.607C1026.83 893.549 1032.63 896.02 1039.58 896.02C1044.31 896.02 1048.28 894.73 1051.5 892.152C1054.73 889.574 1057.16 885.421 1058.81 879.691ZM1060.53 849.184C1060.31 840.447 1058.06 833.822 1053.76 829.311C1049.46 824.727 1044.24 822.436 1038.08 822.436C1031.49 822.436 1026.04 824.835 1021.75 829.633C1017.45 834.431 1015.34 840.948 1015.41 849.184H1060.53ZM1112.95 801.918H1140.77V817.494C1150.73 805.391 1162.58 799.34 1176.33 799.34C1183.63 799.34 1189.97 800.844 1195.34 803.852C1200.71 806.859 1205.12 811.407 1208.55 817.494C1213.57 811.407 1218.97 806.859 1224.78 803.852C1230.58 800.844 1236.77 799.34 1243.36 799.34C1251.74 799.34 1258.83 801.059 1264.63 804.496C1270.43 807.862 1274.76 812.839 1277.63 819.428C1279.7 824.298 1280.74 832.175 1280.74 843.061V916H1250.56V850.795C1250.56 839.48 1249.52 832.175 1247.44 828.881C1244.65 824.584 1240.35 822.436 1234.55 822.436C1230.33 822.436 1226.35 823.725 1222.63 826.303C1218.9 828.881 1216.22 832.676 1214.57 837.689C1212.92 842.631 1212.1 850.473 1212.1 861.215V916H1181.91V853.48C1181.91 842.38 1181.38 835.219 1180.3 831.996C1179.23 828.773 1177.55 826.374 1175.25 824.799C1173.03 823.223 1169.99 822.436 1166.12 822.436C1161.47 822.436 1157.28 823.689 1153.55 826.195C1149.83 828.702 1147.15 832.318 1145.5 837.045C1143.92 841.771 1143.13 849.613 1143.13 860.57V916H1112.95V801.918ZM250.244 1041.92H278.066V1057.49C288.021 1045.39 299.873 1039.34 313.623 1039.34C320.928 1039.34 327.266 1040.84 332.637 1043.85C338.008 1046.86 342.412 1051.41 345.85 1057.49C350.863 1051.41 356.27 1046.86 362.07 1043.85C367.871 1040.84 374.066 1039.34 380.654 1039.34C389.033 1039.34 396.123 1041.06 401.924 1044.5C407.725 1047.86 412.057 1052.84 414.922 1059.43C416.999 1064.3 418.037 1072.18 418.037 1083.06V1156H387.852V1090.79C387.852 1079.48 386.813 1072.18 384.736 1068.88C381.943 1064.58 377.646 1062.44 371.846 1062.44C367.62 1062.44 363.646 1063.72 359.922 1066.3C356.198 1068.88 353.512 1072.68 351.865 1077.69C350.218 1082.63 349.395 1090.47 349.395 1101.21V1156H319.209V1093.48C319.209 1082.38 318.672 1075.22 317.598 1072C316.523 1068.77 314.84 1066.37 312.549 1064.8C310.329 1063.22 307.285 1062.44 303.418 1062.44C298.763 1062.44 294.574 1063.69 290.85 1066.2C287.126 1068.7 284.44 1072.32 282.793 1077.04C281.217 1081.77 280.43 1089.61 280.43 1100.57V1156H250.244V1041.92ZM514.287 1119.69L544.365 1124.74C540.498 1135.77 534.375 1144.18 525.996 1149.98C517.689 1155.71 507.269 1158.58 494.736 1158.58C474.899 1158.58 460.218 1152.1 450.693 1139.13C443.174 1128.75 439.414 1115.65 439.414 1099.82C439.414 1080.91 444.355 1066.12 454.238 1055.45C464.121 1044.71 476.618 1039.34 491.729 1039.34C508.701 1039.34 522.093 1044.96 531.904 1056.21C541.715 1067.38 546.406 1084.53 545.977 1107.66H470.352C470.566 1116.61 473.001 1123.59 477.656 1128.61C482.311 1133.55 488.112 1136.02 495.059 1136.02C499.785 1136.02 503.76 1134.73 506.982 1132.15C510.205 1129.57 512.64 1125.42 514.287 1119.69ZM516.006 1089.18C515.791 1080.45 513.535 1073.82 509.238 1069.31C504.941 1064.73 499.714 1062.44 493.555 1062.44C486.966 1062.44 481.523 1064.83 477.227 1069.63C472.93 1074.43 470.817 1080.95 470.889 1089.18H516.006ZM593.242 1076.72L565.85 1071.78C568.929 1060.75 574.229 1052.59 581.748 1047.29C589.268 1041.99 600.439 1039.34 615.264 1039.34C628.727 1039.34 638.753 1040.95 645.342 1044.17C651.93 1047.32 656.549 1051.37 659.199 1056.31C661.921 1061.18 663.281 1070.17 663.281 1083.28L662.959 1118.51C662.959 1128.54 663.424 1135.95 664.355 1140.75C665.358 1145.47 667.184 1150.56 669.834 1156H639.971C639.183 1153.99 638.216 1151.02 637.07 1147.08C636.569 1145.29 636.211 1144.11 635.996 1143.54C630.84 1148.55 625.326 1152.31 619.453 1154.82C613.581 1157.32 607.314 1158.58 600.654 1158.58C588.91 1158.58 579.635 1155.39 572.832 1149.02C566.1 1142.64 562.734 1134.59 562.734 1124.85C562.734 1118.4 564.274 1112.67 567.354 1107.66C570.433 1102.58 574.73 1098.71 580.244 1096.06C585.83 1093.34 593.851 1090.97 604.307 1088.97C618.415 1086.32 628.19 1083.85 633.633 1081.56V1078.55C633.633 1072.75 632.201 1068.63 629.336 1066.2C626.471 1063.69 621.064 1062.44 613.115 1062.44C607.744 1062.44 603.555 1063.51 600.547 1065.66C597.539 1067.74 595.104 1071.42 593.242 1076.72ZM633.633 1101.21C629.766 1102.5 623.643 1104.04 615.264 1105.83C606.885 1107.62 601.406 1109.38 598.828 1111.1C594.889 1113.89 592.92 1117.44 592.92 1121.73C592.92 1125.96 594.495 1129.61 597.646 1132.69C600.798 1135.77 604.808 1137.31 609.678 1137.31C615.12 1137.31 620.312 1135.52 625.254 1131.94C628.906 1129.22 631.305 1125.89 632.451 1121.95C633.239 1119.37 633.633 1114.46 633.633 1107.23V1101.21ZM796.914 1156H766.729V1097.78C766.729 1085.46 766.084 1077.51 764.795 1073.93C763.506 1070.28 761.393 1067.45 758.457 1065.44C755.592 1063.44 752.119 1062.44 748.037 1062.44C742.809 1062.44 738.118 1063.87 733.965 1066.73C729.811 1069.6 726.947 1073.39 725.371 1078.12C723.867 1082.85 723.115 1091.58 723.115 1104.33V1156H692.93V1041.92H720.967V1058.68C730.921 1045.79 743.454 1039.34 758.564 1039.34C765.225 1039.34 771.312 1040.56 776.826 1042.99C782.34 1045.36 786.494 1048.4 789.287 1052.12C792.152 1055.85 794.121 1060.07 795.195 1064.8C796.341 1069.53 796.914 1076.29 796.914 1085.1V1156ZM827.637 1026.45V998.52H857.822V1026.45H827.637ZM827.637 1156V1041.92H857.822V1156H827.637ZM992.637 1156H962.451V1097.78C962.451 1085.46 961.807 1077.51 960.518 1073.93C959.229 1070.28 957.116 1067.45 954.18 1065.44C951.315 1063.44 947.842 1062.44 943.76 1062.44C938.532 1062.44 933.841 1063.87 929.688 1066.73C925.534 1069.6 922.669 1073.39 921.094 1078.12C919.59 1082.85 918.838 1091.58 918.838 1104.33V1156H888.652V1041.92H916.689V1058.68C926.644 1045.79 939.176 1039.34 954.287 1039.34C960.947 1039.34 967.035 1040.56 972.549 1042.99C978.063 1045.36 982.217 1048.4 985.01 1052.12C987.874 1055.85 989.844 1060.07 990.918 1064.8C992.064 1069.53 992.637 1076.29 992.637 1085.1V1156ZM1020.57 1163.52L1055.05 1167.71C1055.62 1171.72 1056.95 1174.48 1059.02 1175.98C1061.89 1178.13 1066.4 1179.2 1072.56 1179.2C1080.44 1179.2 1086.34 1178.02 1090.28 1175.66C1092.93 1174.08 1094.94 1171.54 1096.3 1168.03C1097.23 1165.52 1097.7 1160.91 1097.7 1154.17V1137.52C1088.67 1149.84 1077.29 1156 1063.54 1156C1048.21 1156 1036.07 1149.52 1027.12 1136.56C1020.1 1126.32 1016.59 1113.57 1016.59 1098.31C1016.59 1079.19 1021.18 1064.58 1030.34 1054.49C1039.58 1044.39 1051.04 1039.34 1064.72 1039.34C1078.82 1039.34 1090.46 1045.53 1099.63 1057.92V1041.92H1127.88V1144.29C1127.88 1157.75 1126.77 1167.82 1124.55 1174.48C1122.33 1181.14 1119.22 1186.36 1115.21 1190.16C1111.19 1193.96 1105.82 1196.93 1099.09 1199.08C1092.43 1201.22 1083.98 1202.3 1073.74 1202.3C1054.4 1202.3 1040.69 1198.97 1032.6 1192.31C1024.51 1185.72 1020.46 1177.34 1020.46 1167.17C1020.46 1166.17 1020.49 1164.95 1020.57 1163.52ZM1047.53 1096.6C1047.53 1108.7 1049.86 1117.58 1054.51 1123.24C1059.24 1128.82 1065.04 1131.62 1071.91 1131.62C1079.29 1131.62 1085.52 1128.75 1090.61 1123.02C1095.69 1117.22 1098.23 1108.66 1098.23 1097.35C1098.23 1085.53 1095.8 1076.76 1090.93 1071.03C1086.06 1065.3 1079.9 1062.44 1072.45 1062.44C1065.22 1062.44 1059.24 1065.26 1054.51 1070.92C1049.86 1076.51 1047.53 1085.07 1047.53 1096.6ZM1157.85 1156V1125.81H1188.04V1156H1157.85Z" fill="#3C3C3C"/>
</svg>
