<svg width="1376" height="292" viewBox="0 0 1376 292" fill="none" xmlns="http://www.w3.org/2000/svg">
<path d="M24 230V58.5H112.5C122.333 58.5 130.833 60.25 138 63.75C145.167 67.0833 150.667 71.8333 154.5 78C158.5 84.1667 160.5 91.5 160.5 100C160.5 106.5 159.333 112.5 157 118C154.667 123.5 151.417 128.083 147.25 131.75C143.083 135.417 138.333 138.167 133 140V141C139 142.333 144.417 144.75 149.25 148.25C154.083 151.75 157.917 156.417 160.75 162.25C163.75 167.917 165.25 174.917 165.25 183.25C165.25 194.417 162.917 203.417 158.25 210.25C153.583 217.083 147.333 222.083 139.5 225.25C131.667 228.417 122.667 230 112.5 230H24ZM47.75 209.5H112.25C120.75 209.5 127.667 207.333 133 203C138.333 198.5 141 191.083 141 180.75C141 174.417 139.833 169.167 137.5 165C135.167 160.667 131.75 157.5 127.25 155.5C122.75 153.333 117.083 152.25 110.25 152.25H47.75V209.5ZM47.75 132H108C113.667 132 118.583 130.917 122.75 128.75C126.917 126.417 130.167 123.25 132.5 119.25C135 115.083 136.25 110.417 136.25 105.25C136.25 96.25 133.833 89.6667 129 85.5C124.167 81.1667 117.75 79 109.75 79H47.75V132ZM246.811 233C233.811 233 222.811 230.583 213.811 225.75C204.977 220.75 198.227 213.167 193.561 203C189.061 192.833 186.811 179.917 186.811 164.25C186.811 148.417 189.061 135.5 193.561 125.5C198.227 115.333 205.061 107.833 214.061 103C223.061 98 234.311 95.5 247.811 95.5C260.144 95.5 270.477 97.9167 278.811 102.75C287.144 107.417 293.394 114.5 297.561 124C301.894 133.333 304.061 145.083 304.061 159.25V169.75H209.561C209.894 180.25 211.394 188.917 214.061 195.75C216.894 202.417 221.061 207.333 226.561 210.5C232.061 213.5 238.977 215 247.311 215C252.977 215 257.894 214.333 262.061 213C266.394 211.5 269.977 209.417 272.811 206.75C275.811 204.083 278.061 200.917 279.561 197.25C281.061 193.583 281.894 189.583 282.061 185.25H303.561C303.394 192.25 302.061 198.75 299.561 204.75C297.061 210.583 293.394 215.583 288.561 219.75C283.727 223.917 277.811 227.167 270.811 229.5C263.811 231.833 255.811 233 246.811 233ZM210.061 153.25H281.311C281.311 145.917 280.477 139.75 278.811 134.75C277.144 129.75 274.727 125.667 271.561 122.5C268.561 119.333 264.977 117.083 260.811 115.75C256.811 114.25 252.227 113.5 247.061 113.5C239.394 113.5 232.894 114.917 227.561 117.75C222.227 120.583 218.144 124.917 215.311 130.75C212.477 136.583 210.727 144.083 210.061 153.25ZM342.523 275.5C338.523 275.5 335.023 275.167 332.023 274.5C329.19 274 327.273 273.667 326.273 273.5V257.5H337.273C341.273 257.5 345.19 256.667 349.023 255C352.857 253.333 356.44 250.5 359.773 246.5C363.107 242.5 365.94 237 368.273 230L317.273 98.5H340.273L366.523 166.25C367.69 169.417 369.023 173.333 370.523 178C372.19 182.5 373.773 187.167 375.273 192C376.94 196.833 378.273 201.083 379.273 204.75H380.773C381.44 202.083 382.273 199.083 383.273 195.75C384.273 192.417 385.273 189 386.273 185.5C387.44 181.833 388.523 178.417 389.523 175.25C390.69 171.917 391.607 169 392.273 166.5L414.523 98.5H436.773L392.273 226.25C389.773 233.417 387.023 240 384.023 246C381.023 252.167 377.69 257.417 374.023 261.75C370.357 266.083 365.94 269.417 360.773 271.75C355.607 274.25 349.523 275.5 342.523 275.5ZM510.029 233C496.696 233 485.446 230.583 476.279 225.75C467.279 220.75 460.363 213.167 455.529 203C450.863 192.833 448.529 179.917 448.529 164.25C448.529 148.417 450.863 135.5 455.529 125.5C460.363 115.333 467.279 107.833 476.279 103C485.446 98 496.696 95.5 510.029 95.5C523.363 95.5 534.529 98 543.529 103C552.696 107.833 559.613 115.333 564.279 125.5C568.946 135.5 571.279 148.417 571.279 164.25C571.279 179.917 568.946 192.833 564.279 203C559.613 213.167 552.696 220.75 543.529 225.75C534.529 230.583 523.363 233 510.029 233ZM510.029 214.5C518.529 214.5 525.613 212.833 531.279 209.5C536.946 206.167 541.196 201 544.029 194C547.029 186.833 548.529 177.833 548.529 167V161.5C548.529 150.5 547.029 141.5 544.029 134.5C541.196 127.5 536.946 122.333 531.279 119C525.613 115.667 518.529 114 510.029 114C501.529 114 494.363 115.667 488.529 119C482.863 122.333 478.613 127.5 475.779 134.5C472.946 141.5 471.529 150.5 471.529 161.5V167C471.529 177.833 472.946 186.833 475.779 194C478.613 201 482.863 206.167 488.529 209.5C494.363 212.833 501.529 214.5 510.029 214.5ZM598.607 230V98.5H616.357L618.357 118.25H620.107C623.607 112.917 627.524 108.583 631.857 105.25C636.357 101.917 641.274 99.5 646.607 98C652.107 96.3333 657.941 95.5 664.107 95.5C672.441 95.5 679.691 96.9167 685.857 99.75C692.191 102.583 697.107 107.167 700.607 113.5C704.274 119.833 706.107 128.417 706.107 139.25V230H684.107V142.25C684.107 136.75 683.357 132.25 681.857 128.75C680.524 125.25 678.607 122.5 676.107 120.5C673.774 118.5 670.857 117.083 667.357 116.25C664.024 115.417 660.274 115 656.107 115C649.941 115 644.107 116.5 638.607 119.5C633.107 122.5 628.691 126.833 625.357 132.5C622.191 138.167 620.607 144.917 620.607 152.75V230H598.607ZM784.227 233C773.393 233 764.06 230.583 756.227 225.75C748.56 220.917 742.56 213.417 738.227 203.25C734.06 192.917 731.977 179.583 731.977 163.25C731.977 147.75 734.143 135 738.477 125C742.81 115 748.81 107.583 756.477 102.75C764.143 97.9167 773.06 95.5 783.227 95.5C789.06 95.5 794.477 96.1667 799.477 97.5C804.477 98.8333 808.893 100.917 812.727 103.75C816.727 106.583 820.227 110.333 823.227 115H824.727V49.25H846.727V230H828.977L826.977 211.25H825.227C820.727 218.583 814.893 224.083 807.727 227.75C800.56 231.25 792.727 233 784.227 233ZM789.477 213.75C797.81 213.75 804.56 211.917 809.727 208.25C814.893 204.583 818.643 199.25 820.977 192.25C823.477 185.25 824.727 176.583 824.727 166.25V162.25C824.727 153.25 823.81 145.667 821.977 139.5C820.143 133.333 817.643 128.417 814.477 124.75C811.31 121.083 807.643 118.5 803.477 117C799.31 115.5 794.893 114.75 790.227 114.75C782.06 114.75 775.393 116.417 770.227 119.75C765.06 122.917 761.227 128 758.727 135C756.227 141.833 754.977 150.75 754.977 161.75V167C754.977 178.333 756.31 187.5 758.977 194.5C761.643 201.333 765.477 206.25 770.477 209.25C775.643 212.25 781.977 213.75 789.477 213.75ZM935.318 230V58.5H969.568L1038.57 151C1039.57 152.167 1040.82 153.833 1042.32 156C1043.82 158 1045.24 160 1046.57 162C1047.9 164 1048.82 165.583 1049.32 166.75H1050.57C1050.57 163.917 1050.57 161.167 1050.57 158.5C1050.57 155.667 1050.57 153.167 1050.57 151V58.5H1085.82V230H1051.57L981.068 135.25C979.402 132.917 977.652 130.333 975.818 127.5C973.985 124.667 972.652 122.5 971.818 121H970.568C970.568 123.5 970.568 126 970.568 128.5C970.568 130.833 970.568 133.083 970.568 135.25V230H935.318ZM1203.79 233C1185.63 233 1169.96 229.75 1156.79 223.25C1143.63 216.75 1133.54 206.917 1126.54 193.75C1119.54 180.583 1116.04 164.083 1116.04 144.25C1116.04 124.083 1119.54 107.5 1126.54 94.5C1133.54 81.3333 1143.63 71.5833 1156.79 65.25C1169.96 58.75 1185.63 55.5 1203.79 55.5C1222.29 55.5 1238.04 58.75 1251.04 65.25C1264.21 71.5833 1274.29 81.3333 1281.29 94.5C1288.29 107.5 1291.79 124.083 1291.79 144.25C1291.79 164.083 1288.29 180.583 1281.29 193.75C1274.29 206.917 1264.21 216.75 1251.04 223.25C1238.04 229.75 1222.29 233 1203.79 233ZM1203.79 202.5C1211.96 202.5 1219.13 201.333 1225.29 199C1231.46 196.667 1236.63 193.167 1240.79 188.5C1244.96 183.833 1248.13 178.167 1250.29 171.5C1252.46 164.667 1253.54 156.917 1253.54 148.25V140.5C1253.54 131.667 1252.46 123.833 1250.29 117C1248.13 110.167 1244.96 104.5 1240.79 100C1236.63 95.3333 1231.46 91.8333 1225.29 89.5C1219.13 87.1667 1211.96 86 1203.79 86C1195.79 86 1188.71 87.1667 1182.54 89.5C1176.38 91.8333 1171.21 95.3333 1167.04 100C1162.88 104.5 1159.71 110.167 1157.54 117C1155.54 123.833 1154.54 131.667 1154.54 140.5V148.25C1154.54 156.917 1155.54 164.667 1157.54 171.5C1159.71 178.167 1162.88 183.833 1167.04 188.5C1171.21 193.167 1176.38 196.667 1182.54 199C1188.71 201.333 1195.79 202.5 1203.79 202.5ZM1316.21 230V194.25H1352.46V230H1316.21Z" fill="white"/>
</svg>
