<svg width="1440" height="253" viewBox="0 0 1440 253" fill="none" xmlns="http://www.w3.org/2000/svg">
<path d="M152.598 109.328H122.412V87.7363C122.412 78.9993 123.164 72.1243 124.668 67.1113C126.243 62.0267 129.108 57.4792 133.262 53.4688C137.415 49.4583 142.715 46.3073 149.16 44.0156L155.068 56.4766C149.053 58.4818 144.72 61.2747 142.07 64.8555C139.492 68.4362 138.132 73.1986 137.988 79.1426H152.598V109.328ZM202.979 109.328H172.793V87.7363C172.793 78.9277 173.545 72.0169 175.049 67.0039C176.624 61.9909 179.489 57.4792 183.643 53.4688C187.868 49.4583 193.167 46.3073 199.541 44.0156L205.449 56.4766C199.434 58.4818 195.101 61.2747 192.451 64.8555C189.873 68.4362 188.512 73.1986 188.369 79.1426H202.979V109.328ZM234.131 45.5195H292.246C305.352 45.5195 315.342 46.5221 322.217 48.5273C331.455 51.2487 339.368 56.0827 345.957 63.0293C352.546 69.9759 357.559 78.498 360.996 88.5957C364.434 98.6217 366.152 111.011 366.152 125.764C366.152 138.726 364.541 149.898 361.318 159.279C357.38 170.738 351.758 180.012 344.453 187.102C338.939 192.473 331.491 196.662 322.109 199.67C315.091 201.89 305.71 203 293.965 203H234.131V45.5195ZM265.928 72.1602V176.467H289.668C298.548 176.467 304.958 175.965 308.896 174.963C314.053 173.674 318.314 171.49 321.68 168.41C325.117 165.331 327.91 160.282 330.059 153.264C332.207 146.174 333.281 136.542 333.281 124.367C333.281 112.193 332.207 102.847 330.059 96.3301C327.91 89.8132 324.902 84.7285 321.035 81.0762C317.168 77.4238 312.262 74.9531 306.318 73.6641C301.878 72.6615 293.177 72.1602 280.215 72.1602H265.928ZM459.072 166.691L489.15 171.74C485.283 182.769 479.16 191.184 470.781 196.984C462.474 202.714 452.054 205.578 439.521 205.578C419.684 205.578 405.003 199.097 395.479 186.135C387.959 175.751 384.199 162.645 384.199 146.818C384.199 127.912 389.141 113.124 399.023 102.453C408.906 91.7109 421.403 86.3398 436.514 86.3398C453.486 86.3398 466.878 91.9616 476.689 103.205C486.501 114.377 491.191 131.529 490.762 154.66H415.137C415.352 163.612 417.786 170.594 422.441 175.607C427.096 180.549 432.897 183.02 439.844 183.02C444.57 183.02 448.545 181.73 451.768 179.152C454.99 176.574 457.425 172.421 459.072 166.691ZM460.791 136.184C460.576 127.447 458.32 120.822 454.023 116.311C449.727 111.727 444.499 109.436 438.34 109.436C431.751 109.436 426.309 111.835 422.012 116.633C417.715 121.431 415.602 127.948 415.674 136.184H460.791ZM538.027 123.723L510.635 118.781C513.714 107.753 519.014 99.5885 526.533 94.2891C534.053 88.9896 545.225 86.3398 560.049 86.3398C573.512 86.3398 583.538 87.9512 590.127 91.1738C596.715 94.3249 601.335 98.3711 603.984 103.312C606.706 108.182 608.066 117.17 608.066 130.275L607.744 165.51C607.744 175.536 608.21 182.948 609.141 187.746C610.143 192.473 611.969 197.557 614.619 203H584.756C583.968 200.995 583.001 198.023 581.855 194.084C581.354 192.294 580.996 191.112 580.781 190.539C575.625 195.552 570.111 199.312 564.238 201.818C558.366 204.325 552.1 205.578 545.439 205.578C533.695 205.578 524.421 202.391 517.617 196.018C510.885 189.644 507.52 181.587 507.52 171.848C507.52 165.402 509.059 159.673 512.139 154.66C515.218 149.576 519.515 145.708 525.029 143.059C530.615 140.337 538.636 137.974 549.092 135.969C563.2 133.319 572.975 130.848 578.418 128.557V125.549C578.418 119.748 576.986 115.63 574.121 113.195C571.257 110.689 565.85 109.436 557.9 109.436C552.529 109.436 548.34 110.51 545.332 112.658C542.324 114.735 539.889 118.423 538.027 123.723ZM578.418 148.215C574.551 149.504 568.428 151.044 560.049 152.834C551.67 154.624 546.191 156.379 543.613 158.098C539.674 160.891 537.705 164.436 537.705 168.732C537.705 172.958 539.281 176.61 542.432 179.689C545.583 182.769 549.593 184.309 554.463 184.309C559.906 184.309 565.098 182.518 570.039 178.938C573.691 176.216 576.09 172.886 577.236 168.947C578.024 166.369 578.418 161.464 578.418 154.23V148.215ZM666.826 203H636.641V88.918H664.678V105.139C669.476 97.4759 673.773 92.4271 677.568 89.9922C681.436 87.5573 685.804 86.3398 690.674 86.3398C697.549 86.3398 704.173 88.2376 710.547 92.0332L701.201 118.352C696.117 115.057 691.39 113.41 687.021 113.41C682.796 113.41 679.215 114.592 676.279 116.955C673.343 119.247 671.016 123.436 669.297 129.523C667.65 135.611 666.826 148.358 666.826 167.766V203ZM889.512 203H861.475V186.242C856.82 192.759 851.305 197.629 844.932 200.852C838.63 204.003 832.256 205.578 825.811 205.578C812.705 205.578 801.462 200.314 792.08 189.787C782.77 179.188 778.115 164.436 778.115 145.529C778.115 126.193 782.663 111.512 791.758 101.486C800.853 91.3887 812.347 86.3398 826.24 86.3398C838.988 86.3398 850.016 91.6393 859.326 102.238V45.5195H889.512V203ZM808.945 143.488C808.945 155.663 810.628 164.471 813.994 169.914C818.864 177.792 825.667 181.73 834.404 181.73C841.351 181.73 847.259 178.794 852.129 172.922C856.999 166.978 859.434 158.133 859.434 146.389C859.434 133.283 857.07 123.866 852.344 118.137C847.617 112.336 841.566 109.436 834.189 109.436C827.028 109.436 821.012 112.3 816.143 118.029C811.344 123.687 808.945 132.173 808.945 143.488ZM941.934 123.723L914.541 118.781C917.62 107.753 922.92 99.5885 930.439 94.2891C937.959 88.9896 949.131 86.3398 963.955 86.3398C977.419 86.3398 987.445 87.9512 994.033 91.1738C1000.62 94.3249 1005.24 98.3711 1007.89 103.312C1010.61 108.182 1011.97 117.17 1011.97 130.275L1011.65 165.51C1011.65 175.536 1012.12 182.948 1013.05 187.746C1014.05 192.473 1015.88 197.557 1018.53 203H988.662C987.874 200.995 986.908 198.023 985.762 194.084C985.26 192.294 984.902 191.112 984.688 190.539C979.531 195.552 974.017 199.312 968.145 201.818C962.272 204.325 956.006 205.578 949.346 205.578C937.601 205.578 928.327 202.391 921.523 196.018C914.792 189.644 911.426 181.587 911.426 171.848C911.426 165.402 912.965 159.673 916.045 154.66C919.124 149.576 923.421 145.708 928.936 143.059C934.521 140.337 942.542 137.974 952.998 135.969C967.106 133.319 976.882 130.848 982.324 128.557V125.549C982.324 119.748 980.892 115.63 978.027 113.195C975.163 110.689 969.756 109.436 961.807 109.436C956.436 109.436 952.246 110.51 949.238 112.658C946.23 114.735 943.796 118.423 941.934 123.723ZM982.324 148.215C978.457 149.504 972.334 151.044 963.955 152.834C955.576 154.624 950.098 156.379 947.52 158.098C943.581 160.891 941.611 164.436 941.611 168.732C941.611 172.958 943.187 176.61 946.338 179.689C949.489 182.769 953.499 184.309 958.369 184.309C963.812 184.309 969.004 182.518 973.945 178.938C977.598 176.216 979.997 172.886 981.143 168.947C981.93 166.369 982.324 161.464 982.324 154.23V148.215ZM1094.15 88.918V112.98H1073.53V158.957C1073.53 168.267 1073.7 173.71 1074.06 175.285C1074.49 176.789 1075.39 178.042 1076.75 179.045C1078.18 180.048 1079.9 180.549 1081.9 180.549C1084.7 180.549 1088.74 179.582 1094.04 177.648L1096.62 201.066C1089.6 204.074 1081.65 205.578 1072.77 205.578C1067.33 205.578 1062.43 204.683 1058.06 202.893C1053.69 201.031 1050.47 198.667 1048.39 195.803C1046.38 192.867 1044.99 188.928 1044.2 183.986C1043.55 180.477 1043.23 173.387 1043.23 162.717V112.98H1029.38V88.918H1043.23V66.252L1073.53 48.6348V88.918H1094.15ZM1137.66 123.723L1110.26 118.781C1113.34 107.753 1118.64 99.5885 1126.16 94.2891C1133.68 88.9896 1144.85 86.3398 1159.68 86.3398C1173.14 86.3398 1183.17 87.9512 1189.76 91.1738C1196.34 94.3249 1200.96 98.3711 1203.61 103.312C1206.33 108.182 1207.7 117.17 1207.7 130.275L1207.37 165.51C1207.37 175.536 1207.84 182.948 1208.77 187.746C1209.77 192.473 1211.6 197.557 1214.25 203H1184.38C1183.6 200.995 1182.63 198.023 1181.48 194.084C1180.98 192.294 1180.62 191.112 1180.41 190.539C1175.25 195.552 1169.74 199.312 1163.87 201.818C1157.99 204.325 1151.73 205.578 1145.07 205.578C1133.32 205.578 1124.05 202.391 1117.25 196.018C1110.51 189.644 1107.15 181.587 1107.15 171.848C1107.15 165.402 1108.69 159.673 1111.77 154.66C1114.85 149.576 1119.14 145.708 1124.66 143.059C1130.24 140.337 1138.26 137.974 1148.72 135.969C1162.83 133.319 1172.6 130.848 1178.05 128.557V125.549C1178.05 119.748 1176.61 115.63 1173.75 113.195C1170.89 110.689 1165.48 109.436 1157.53 109.436C1152.16 109.436 1147.97 110.51 1144.96 112.658C1141.95 114.735 1139.52 118.423 1137.66 123.723ZM1178.05 148.215C1174.18 149.504 1168.06 151.044 1159.68 152.834C1151.3 154.624 1145.82 156.379 1143.24 158.098C1139.3 160.891 1137.33 164.436 1137.33 168.732C1137.33 172.958 1138.91 176.61 1142.06 179.689C1145.21 182.769 1149.22 184.309 1154.09 184.309C1159.53 184.309 1164.73 182.518 1169.67 178.938C1173.32 176.216 1175.72 172.886 1176.87 168.947C1177.65 166.369 1178.05 161.464 1178.05 154.23V148.215ZM1286.22 45.5195H1316.41V67.2188C1316.41 75.9557 1315.62 82.8307 1314.04 87.8438C1312.54 92.8568 1309.67 97.4043 1305.45 101.486C1301.3 105.497 1296.03 108.648 1289.66 110.939L1283.75 98.3711C1289.77 96.3659 1294.06 93.5729 1296.64 89.9922C1299.29 86.4115 1300.65 81.6491 1300.72 75.7051H1286.22V45.5195ZM1235.52 45.5195H1265.7V67.2188C1265.7 75.9557 1264.95 82.8307 1263.45 87.8438C1261.94 92.8568 1259.08 97.4043 1254.85 101.486C1250.7 105.497 1245.4 108.648 1238.96 110.939L1233.05 98.3711C1239.13 96.3659 1243.47 93.5729 1246.04 89.9922C1248.62 86.4115 1249.98 81.6491 1250.13 75.7051H1235.52V45.5195Z" fill="white"/>
</svg>
