<svg width="1440" height="960" viewBox="0 0 1440 960" fill="none" xmlns="http://www.w3.org/2000/svg">
<path d="M136.699 38.5195H199.648C212.109 38.5195 221.383 39.0566 227.471 40.1309C233.63 41.1335 239.108 43.2819 243.906 46.5762C248.776 49.8704 252.822 54.2747 256.045 59.7891C259.268 65.2318 260.879 71.3548 260.879 78.1582C260.879 85.5345 258.874 92.3021 254.863 98.4609C250.924 104.62 245.553 109.239 238.75 112.318C248.346 115.111 255.723 119.874 260.879 126.605C266.035 133.337 268.613 141.251 268.613 150.346C268.613 157.507 266.93 164.49 263.564 171.293C260.27 178.025 255.723 183.432 249.922 187.514C244.193 191.524 237.103 193.995 228.652 194.926C223.353 195.499 210.57 195.857 190.303 196H136.699V38.5195ZM168.496 64.7305V101.146H189.336C201.725 101.146 209.424 100.967 212.432 100.609C217.874 99.9648 222.135 98.1029 225.215 95.0234C228.366 91.8724 229.941 87.7546 229.941 82.6699C229.941 77.8001 228.581 73.8613 225.859 70.8535C223.21 67.7741 219.235 65.9121 213.936 65.2676C210.785 64.9095 201.725 64.7305 186.758 64.7305H168.496ZM168.496 127.357V169.467H197.93C209.388 169.467 216.657 169.145 219.736 168.5C224.463 167.641 228.294 165.564 231.23 162.27C234.238 158.904 235.742 154.428 235.742 148.842C235.742 144.115 234.596 140.105 232.305 136.811C230.013 133.516 226.683 131.117 222.314 129.613C218.018 128.109 208.636 127.357 194.17 127.357H168.496ZM361.426 159.691L391.504 164.74C387.637 175.769 381.514 184.184 373.135 189.984C364.827 195.714 354.408 198.578 341.875 198.578C322.038 198.578 307.357 192.097 297.832 179.135C290.312 168.751 286.553 155.645 286.553 139.818C286.553 120.912 291.494 106.124 301.377 95.4531C311.26 84.7109 323.757 79.3398 338.867 79.3398C355.84 79.3398 369.232 84.9616 379.043 96.2051C388.854 107.377 393.545 124.529 393.115 147.66H317.49C317.705 156.612 320.14 163.594 324.795 168.607C329.45 173.549 335.251 176.02 342.197 176.02C346.924 176.02 350.898 174.73 354.121 172.152C357.344 169.574 359.779 165.421 361.426 159.691ZM363.145 129.184C362.93 120.447 360.674 113.822 356.377 109.311C352.08 104.727 346.852 102.436 340.693 102.436C334.105 102.436 328.662 104.835 324.365 109.633C320.068 114.431 317.956 120.948 318.027 129.184H363.145ZM403.535 81.918H435.654L462.939 162.914L489.58 81.918H520.84L480.557 191.703L473.359 211.576C470.71 218.236 468.167 223.321 465.732 226.83C463.369 230.339 460.612 233.168 457.461 235.316C454.382 237.536 450.55 239.255 445.967 240.473C441.455 241.69 436.335 242.299 430.605 242.299C424.805 242.299 419.111 241.69 413.525 240.473L410.84 216.84C415.566 217.771 419.827 218.236 423.623 218.236C430.641 218.236 435.833 216.16 439.199 212.006C442.565 207.924 445.143 202.696 446.934 196.322L403.535 81.918ZM533.301 137.348C533.301 127.322 535.771 117.618 540.713 108.236C545.654 98.8548 552.637 91.6934 561.66 86.752C570.755 81.8105 580.889 79.3398 592.061 79.3398C609.32 79.3398 623.464 84.9616 634.492 96.2051C645.521 107.377 651.035 121.521 651.035 138.637C651.035 155.896 645.449 170.219 634.277 181.605C623.177 192.921 609.176 198.578 592.275 198.578C581.82 198.578 571.829 196.215 562.305 191.488C552.852 186.762 545.654 179.851 540.713 170.756C535.771 161.589 533.301 150.453 533.301 137.348ZM564.238 138.959C564.238 150.274 566.924 158.939 572.295 164.955C577.666 170.971 584.29 173.979 592.168 173.979C600.046 173.979 606.634 170.971 611.934 164.955C617.305 158.939 619.99 150.202 619.99 138.744C619.99 127.572 617.305 118.979 611.934 112.963C606.634 106.947 600.046 103.939 592.168 103.939C584.29 103.939 577.666 106.947 572.295 112.963C566.924 118.979 564.238 127.644 564.238 138.959ZM778.545 196H748.359V137.777C748.359 125.46 747.715 117.51 746.426 113.93C745.137 110.277 743.024 107.449 740.088 105.443C737.223 103.438 733.75 102.436 729.668 102.436C724.44 102.436 719.749 103.868 715.596 106.732C711.442 109.597 708.577 113.393 707.002 118.119C705.498 122.846 704.746 131.583 704.746 144.33V196H674.561V81.918H702.598V98.6758C712.552 85.7852 725.085 79.3398 740.195 79.3398C746.855 79.3398 752.943 80.5573 758.457 82.9922C763.971 85.3555 768.125 88.3991 770.918 92.123C773.783 95.847 775.752 100.072 776.826 104.799C777.972 109.525 778.545 116.293 778.545 125.102V196ZM913.896 196H885.859V179.242C881.204 185.759 875.69 190.629 869.316 193.852C863.014 197.003 856.641 198.578 850.195 198.578C837.09 198.578 825.846 193.314 816.465 182.787C807.155 172.188 802.5 157.436 802.5 138.529C802.5 119.193 807.048 104.512 816.143 94.4863C825.238 84.3887 836.732 79.3398 850.625 79.3398C863.372 79.3398 874.401 84.6393 883.711 95.2383V38.5195H913.896V196ZM833.33 136.488C833.33 148.663 835.013 157.471 838.379 162.914C843.249 170.792 850.052 174.73 858.789 174.73C865.736 174.73 871.644 171.794 876.514 165.922C881.383 159.978 883.818 151.133 883.818 139.389C883.818 126.283 881.455 116.866 876.729 111.137C872.002 105.336 865.951 102.436 858.574 102.436C851.413 102.436 845.397 105.3 840.527 111.029C835.729 116.687 833.33 125.173 833.33 136.488ZM1057.3 81.918V105.98H1036.68V151.957C1036.68 161.267 1036.86 166.71 1037.22 168.285C1037.65 169.789 1038.54 171.042 1039.9 172.045C1041.33 173.048 1043.05 173.549 1045.06 173.549C1047.85 173.549 1051.9 172.582 1057.2 170.648L1059.78 194.066C1052.76 197.074 1044.81 198.578 1035.93 198.578C1030.49 198.578 1025.58 197.683 1021.21 195.893C1016.84 194.031 1013.62 191.667 1011.54 188.803C1009.54 185.867 1008.14 181.928 1007.35 176.986C1006.71 173.477 1006.39 166.387 1006.39 155.717V105.98H992.529V81.918H1006.39V59.252L1036.68 41.6348V81.918H1057.3ZM1108.33 38.5195V96.4199C1118.07 85.0332 1129.71 79.3398 1143.24 79.3398C1150.19 79.3398 1156.46 80.6289 1162.04 83.207C1167.63 85.7852 1171.82 89.0794 1174.61 93.0898C1177.47 97.1003 1179.41 101.54 1180.41 106.41C1181.48 111.28 1182.02 118.835 1182.02 129.076V196H1151.84V135.736C1151.84 123.777 1151.26 116.186 1150.12 112.963C1148.97 109.74 1146.93 107.198 1143.99 105.336C1141.13 103.402 1137.51 102.436 1133.14 102.436C1128.13 102.436 1123.66 103.653 1119.72 106.088C1115.78 108.523 1112.88 112.211 1111.02 117.152C1109.23 122.022 1108.33 129.255 1108.33 138.852V196H1078.14V38.5195H1108.33ZM1278.81 159.691L1308.89 164.74C1305.02 175.769 1298.9 184.184 1290.52 189.984C1282.21 195.714 1271.79 198.578 1259.26 198.578C1239.42 198.578 1224.74 192.097 1215.21 179.135C1207.7 168.751 1203.94 155.645 1203.94 139.818C1203.94 120.912 1208.88 106.124 1218.76 95.4531C1228.64 84.7109 1241.14 79.3398 1256.25 79.3398C1273.22 79.3398 1286.61 84.9616 1296.43 96.2051C1306.24 107.377 1310.93 124.529 1310.5 147.66H1234.87C1235.09 156.612 1237.52 163.594 1242.18 168.607C1246.83 173.549 1252.63 176.02 1259.58 176.02C1264.31 176.02 1268.28 174.73 1271.5 172.152C1274.73 169.574 1277.16 165.421 1278.81 159.691ZM1280.53 129.184C1280.31 120.447 1278.06 113.822 1273.76 109.311C1269.46 104.727 1264.24 102.436 1258.08 102.436C1251.49 102.436 1246.04 104.835 1241.75 109.633C1237.45 114.431 1235.34 120.948 1235.41 129.184H1280.53ZM445.967 321.918H473.789V337.494C483.743 325.391 495.596 319.34 509.346 319.34C516.65 319.34 522.988 320.844 528.359 323.852C533.73 326.859 538.135 331.407 541.572 337.494C546.585 331.407 551.992 326.859 557.793 323.852C563.594 320.844 569.788 319.34 576.377 319.34C584.756 319.34 591.846 321.059 597.646 324.496C603.447 327.862 607.78 332.839 610.645 339.428C612.721 344.298 613.76 352.175 613.76 363.061V436H583.574V370.795C583.574 359.48 582.536 352.175 580.459 348.881C577.666 344.584 573.369 342.436 567.568 342.436C563.343 342.436 559.368 343.725 555.645 346.303C551.921 348.881 549.235 352.676 547.588 357.689C545.941 362.631 545.117 370.473 545.117 381.215V436H514.932V373.48C514.932 362.38 514.395 355.219 513.32 351.996C512.246 348.773 510.563 346.374 508.271 344.799C506.051 343.223 503.008 342.436 499.141 342.436C494.486 342.436 490.296 343.689 486.572 346.195C482.848 348.702 480.163 352.318 478.516 357.045C476.94 361.771 476.152 369.613 476.152 380.57V436H445.967V321.918ZM666.504 356.723L639.111 351.781C642.191 340.753 647.49 332.589 655.01 327.289C662.529 321.99 673.701 319.34 688.525 319.34C701.989 319.34 712.015 320.951 718.604 324.174C725.192 327.325 729.811 331.371 732.461 336.312C735.182 341.182 736.543 350.17 736.543 363.275L736.221 398.51C736.221 408.536 736.686 415.948 737.617 420.746C738.62 425.473 740.446 430.557 743.096 436H713.232C712.445 433.995 711.478 431.023 710.332 427.084C709.831 425.294 709.473 424.112 709.258 423.539C704.102 428.552 698.587 432.312 692.715 434.818C686.842 437.325 680.576 438.578 673.916 438.578C662.171 438.578 652.897 435.391 646.094 429.018C639.362 422.644 635.996 414.587 635.996 404.848C635.996 398.402 637.536 392.673 640.615 387.66C643.695 382.576 647.992 378.708 653.506 376.059C659.092 373.337 667.113 370.974 677.568 368.969C691.676 366.319 701.452 363.848 706.895 361.557V358.549C706.895 352.748 705.462 348.63 702.598 346.195C699.733 343.689 694.326 342.436 686.377 342.436C681.006 342.436 676.816 343.51 673.809 345.658C670.801 347.735 668.366 351.423 666.504 356.723ZM706.895 381.215C703.027 382.504 696.904 384.044 688.525 385.834C680.146 387.624 674.668 389.379 672.09 391.098C668.151 393.891 666.182 397.436 666.182 401.732C666.182 405.958 667.757 409.61 670.908 412.689C674.059 415.769 678.07 417.309 682.939 417.309C688.382 417.309 693.574 415.518 698.516 411.938C702.168 409.216 704.567 405.886 705.713 401.947C706.501 399.369 706.895 394.464 706.895 387.23V381.215ZM765.547 321.918H793.691V338.676C797.344 332.947 802.285 328.292 808.516 324.711C814.746 321.13 821.657 319.34 829.248 319.34C842.497 319.34 853.74 324.532 862.979 334.916C872.217 345.3 876.836 359.766 876.836 378.314C876.836 397.364 872.181 412.188 862.871 422.787C853.561 433.314 842.282 438.578 829.033 438.578C822.731 438.578 817.002 437.325 811.846 434.818C806.761 432.312 801.39 428.015 795.732 421.928V479.398H765.547V321.918ZM795.41 377.025C795.41 389.844 797.952 399.333 803.037 405.492C808.122 411.579 814.316 414.623 821.621 414.623C828.639 414.623 834.476 411.83 839.131 406.244C843.786 400.587 846.113 391.348 846.113 378.529C846.113 366.57 843.714 357.689 838.916 351.889C834.118 346.088 828.174 343.188 821.084 343.188C813.708 343.188 807.585 346.052 802.715 351.781C797.845 357.439 795.41 365.854 795.41 377.025ZM900.146 405.814H930.332V427.406C930.332 436.143 929.58 443.018 928.076 448.031C926.572 453.116 923.708 457.663 919.482 461.674C915.329 465.684 910.029 468.835 903.584 471.127L897.676 458.666C903.763 456.661 908.096 453.904 910.674 450.395C913.252 446.885 914.613 442.087 914.756 436H900.146V405.814ZM108.555 676L72.4609 561.918H101.787L123.164 636.684L142.822 561.918H171.934L190.947 636.684L212.754 561.918H242.51L205.879 676H176.875L157.217 602.631L137.881 676H108.555ZM288.594 518.52V576.42C298.333 565.033 309.971 559.34 323.506 559.34C330.452 559.34 336.719 560.629 342.305 563.207C347.891 565.785 352.08 569.079 354.873 573.09C357.738 577.1 359.671 581.54 360.674 586.41C361.748 591.28 362.285 598.835 362.285 609.076V676H332.1V615.736C332.1 603.777 331.527 596.186 330.381 592.963C329.235 589.74 327.194 587.198 324.258 585.336C321.393 583.402 317.777 582.436 313.408 582.436C308.395 582.436 303.919 583.653 299.98 586.088C296.042 588.523 293.141 592.211 291.279 597.152C289.489 602.022 288.594 609.255 288.594 618.852V676H258.408V518.52H288.594ZM415.566 596.723L388.174 591.781C391.253 580.753 396.553 572.589 404.072 567.289C411.592 561.99 422.764 559.34 437.588 559.34C451.051 559.34 461.077 560.951 467.666 564.174C474.255 567.325 478.874 571.371 481.523 576.312C484.245 581.182 485.605 590.17 485.605 603.275L485.283 638.51C485.283 648.536 485.749 655.948 486.68 660.746C487.682 665.473 489.508 670.557 492.158 676H462.295C461.507 673.995 460.54 671.023 459.395 667.084C458.893 665.294 458.535 664.112 458.32 663.539C453.164 668.552 447.65 672.312 441.777 674.818C435.905 677.325 429.639 678.578 422.979 678.578C411.234 678.578 401.96 675.391 395.156 669.018C388.424 662.644 385.059 654.587 385.059 644.848C385.059 638.402 386.598 632.673 389.678 627.66C392.757 622.576 397.054 618.708 402.568 616.059C408.154 613.337 416.175 610.974 426.631 608.969C440.739 606.319 450.514 603.848 455.957 601.557V598.549C455.957 592.748 454.525 588.63 451.66 586.195C448.796 583.689 443.389 582.436 435.439 582.436C430.068 582.436 425.879 583.51 422.871 585.658C419.863 587.735 417.428 591.423 415.566 596.723ZM455.957 621.215C452.09 622.504 445.967 624.044 437.588 625.834C429.209 627.624 423.73 629.379 421.152 631.098C417.214 633.891 415.244 637.436 415.244 641.732C415.244 645.958 416.82 649.61 419.971 652.689C423.122 655.769 427.132 657.309 432.002 657.309C437.445 657.309 442.637 655.518 447.578 651.938C451.23 649.216 453.63 645.886 454.775 641.947C455.563 639.369 455.957 634.464 455.957 627.23V621.215ZM567.783 561.918V585.98H547.158V631.957C547.158 641.267 547.337 646.71 547.695 648.285C548.125 649.789 549.02 651.042 550.381 652.045C551.813 653.048 553.532 653.549 555.537 653.549C558.33 653.549 562.376 652.582 567.676 650.648L570.254 674.066C563.236 677.074 555.286 678.578 546.406 678.578C540.964 678.578 536.058 677.683 531.689 675.893C527.321 674.031 524.098 671.667 522.021 668.803C520.016 665.867 518.62 661.928 517.832 656.986C517.188 653.477 516.865 646.387 516.865 635.717V585.98H503.008V561.918H516.865V539.252L547.158 521.635V561.918H567.783ZM749.434 595.648L719.678 601.02C718.675 595.076 716.383 590.6 712.803 587.592C709.294 584.584 704.71 583.08 699.053 583.08C691.533 583.08 685.518 585.694 681.006 590.922C676.566 596.078 674.346 604.743 674.346 616.918C674.346 630.453 676.602 640.014 681.113 645.6C685.697 651.186 691.82 653.979 699.482 653.979C705.212 653.979 709.902 652.367 713.555 649.145C717.207 645.85 719.785 640.229 721.289 632.279L750.938 637.328C747.858 650.935 741.95 661.212 733.213 668.158C724.476 675.105 712.767 678.578 698.086 678.578C681.4 678.578 668.079 673.314 658.125 662.787C648.242 652.26 643.301 637.686 643.301 619.066C643.301 600.232 648.278 585.587 658.232 575.131C668.187 564.604 681.65 559.34 698.623 559.34C712.516 559.34 723.545 562.348 731.709 568.363C739.945 574.307 745.853 583.402 749.434 595.648ZM794.98 596.723L767.588 591.781C770.667 580.753 775.967 572.589 783.486 567.289C791.006 561.99 802.178 559.34 817.002 559.34C830.465 559.34 840.492 560.951 847.08 564.174C853.669 567.325 858.288 571.371 860.938 576.312C863.659 581.182 865.02 590.17 865.02 603.275L864.697 638.51C864.697 648.536 865.163 655.948 866.094 660.746C867.096 665.473 868.923 670.557 871.572 676H841.709C840.921 673.995 839.954 671.023 838.809 667.084C838.307 665.294 837.949 664.112 837.734 663.539C832.578 668.552 827.064 672.312 821.191 674.818C815.319 677.325 809.053 678.578 802.393 678.578C790.648 678.578 781.374 675.391 774.57 669.018C767.839 662.644 764.473 654.587 764.473 644.848C764.473 638.402 766.012 632.673 769.092 627.66C772.171 622.576 776.468 618.708 781.982 616.059C787.568 613.337 795.589 610.974 806.045 608.969C820.153 606.319 829.928 603.848 835.371 601.557V598.549C835.371 592.748 833.939 588.63 831.074 586.195C828.21 583.689 822.803 582.436 814.854 582.436C809.482 582.436 805.293 583.51 802.285 585.658C799.277 587.735 796.842 591.423 794.98 596.723ZM835.371 621.215C831.504 622.504 825.381 624.044 817.002 625.834C808.623 627.624 803.145 629.379 800.566 631.098C796.628 633.891 794.658 637.436 794.658 641.732C794.658 645.958 796.234 649.61 799.385 652.689C802.536 655.769 806.546 657.309 811.416 657.309C816.859 657.309 822.051 655.518 826.992 651.938C830.645 649.216 833.044 645.886 834.189 641.947C834.977 639.369 835.371 634.464 835.371 627.23V621.215ZM998.652 676H968.467V617.777C968.467 605.46 967.822 597.51 966.533 593.93C965.244 590.277 963.132 587.449 960.195 585.443C957.331 583.438 953.857 582.436 949.775 582.436C944.548 582.436 939.857 583.868 935.703 586.732C931.549 589.597 928.685 593.393 927.109 598.119C925.605 602.846 924.854 611.583 924.854 624.33V676H894.668V561.918H922.705V578.676C932.66 565.785 945.192 559.34 960.303 559.34C966.963 559.34 973.05 560.557 978.564 562.992C984.079 565.355 988.232 568.399 991.025 572.123C993.89 575.847 995.859 580.072 996.934 584.799C998.079 589.525 998.652 596.293 998.652 605.102V676ZM1111.88 676L1075.78 561.918H1105.11L1126.48 636.684L1146.14 561.918H1175.25L1194.27 636.684L1216.07 561.918H1245.83L1209.2 676H1180.2L1160.54 602.631L1141.2 676H1111.88ZM1327.9 639.691L1357.98 644.74C1354.11 655.769 1347.99 664.184 1339.61 669.984C1331.3 675.714 1320.88 678.578 1308.35 678.578C1288.51 678.578 1273.83 672.097 1264.31 659.135C1256.79 648.751 1253.03 635.645 1253.03 619.818C1253.03 600.912 1257.97 586.124 1267.85 575.453C1277.73 564.711 1290.23 559.34 1305.34 559.34C1322.31 559.34 1335.71 564.962 1345.52 576.205C1355.33 587.377 1360.02 604.529 1359.59 627.66H1283.96C1284.18 636.612 1286.61 643.594 1291.27 648.607C1295.92 653.549 1301.73 656.02 1308.67 656.02C1313.4 656.02 1317.37 654.73 1320.6 652.152C1323.82 649.574 1326.25 645.421 1327.9 639.691ZM1329.62 609.184C1329.4 600.447 1327.15 593.822 1322.85 589.311C1318.55 584.727 1313.33 582.436 1307.17 582.436C1300.58 582.436 1295.14 584.835 1290.84 589.633C1286.54 594.431 1284.43 600.948 1284.5 609.184H1329.62ZM165.059 916H134.873V801.918H162.91V818.139C167.708 810.476 172.005 805.427 175.801 802.992C179.668 800.557 184.036 799.34 188.906 799.34C195.781 799.34 202.406 801.238 208.779 805.033L199.434 831.352C194.349 828.057 189.622 826.41 185.254 826.41C181.029 826.41 177.448 827.592 174.512 829.955C171.576 832.247 169.248 836.436 167.529 842.523C165.882 848.611 165.059 861.358 165.059 880.766V916ZM287.949 879.691L318.027 884.74C314.16 895.769 308.037 904.184 299.658 909.984C291.351 915.714 280.931 918.578 268.398 918.578C248.561 918.578 233.88 912.097 224.355 899.135C216.836 888.751 213.076 875.645 213.076 859.818C213.076 840.912 218.018 826.124 227.9 815.453C237.783 804.711 250.28 799.34 265.391 799.34C282.363 799.34 295.755 804.962 305.566 816.205C315.378 827.377 320.068 844.529 319.639 867.66H244.014C244.229 876.612 246.663 883.594 251.318 888.607C255.973 893.549 261.774 896.02 268.721 896.02C273.447 896.02 277.422 894.73 280.645 892.152C283.867 889.574 286.302 885.421 287.949 879.691ZM289.668 849.184C289.453 840.447 287.197 833.822 282.9 829.311C278.604 824.727 273.376 822.436 267.217 822.436C260.628 822.436 255.186 824.835 250.889 829.633C246.592 834.431 244.479 840.948 244.551 849.184H289.668ZM342.09 801.918H369.912V817.494C379.867 805.391 391.719 799.34 405.469 799.34C412.773 799.34 419.111 800.844 424.482 803.852C429.854 806.859 434.258 811.407 437.695 817.494C442.708 811.407 448.115 806.859 453.916 803.852C459.717 800.844 465.911 799.34 472.5 799.34C480.879 799.34 487.969 801.059 493.77 804.496C499.57 807.862 503.903 812.839 506.768 819.428C508.844 824.298 509.883 832.175 509.883 843.061V916H479.697V850.795C479.697 839.48 478.659 832.175 476.582 828.881C473.789 824.584 469.492 822.436 463.691 822.436C459.466 822.436 455.492 823.725 451.768 826.303C448.044 828.881 445.358 832.676 443.711 837.689C442.064 842.631 441.24 850.473 441.24 861.215V916H411.055V853.48C411.055 842.38 410.518 835.219 409.443 831.996C408.369 828.773 406.686 826.374 404.395 824.799C402.174 823.223 399.131 822.436 395.264 822.436C390.609 822.436 386.419 823.689 382.695 826.195C378.971 828.702 376.286 832.318 374.639 837.045C373.063 841.771 372.275 849.613 372.275 860.57V916H342.09V801.918ZM606.133 879.691L636.211 884.74C632.344 895.769 626.221 904.184 617.842 909.984C609.535 915.714 599.115 918.578 586.582 918.578C566.745 918.578 552.064 912.097 542.539 899.135C535.02 888.751 531.26 875.645 531.26 859.818C531.26 840.912 536.201 826.124 546.084 815.453C555.967 804.711 568.464 799.34 583.574 799.34C600.547 799.34 613.939 804.962 623.75 816.205C633.561 827.377 638.252 844.529 637.822 867.66H562.197C562.412 876.612 564.847 883.594 569.502 888.607C574.157 893.549 579.958 896.02 586.904 896.02C591.631 896.02 595.605 894.73 598.828 892.152C602.051 889.574 604.486 885.421 606.133 879.691ZM607.852 849.184C607.637 840.447 605.381 833.822 601.084 829.311C596.787 824.727 591.559 822.436 585.4 822.436C578.812 822.436 573.369 824.835 569.072 829.633C564.775 834.431 562.663 840.948 562.734 849.184H607.852ZM660.273 801.918H688.096V817.494C698.05 805.391 709.902 799.34 723.652 799.34C730.957 799.34 737.295 800.844 742.666 803.852C748.037 806.859 752.441 811.407 755.879 817.494C760.892 811.407 766.299 806.859 772.1 803.852C777.9 800.844 784.095 799.34 790.684 799.34C799.062 799.34 806.152 801.059 811.953 804.496C817.754 807.862 822.087 812.839 824.951 819.428C827.028 824.298 828.066 832.175 828.066 843.061V916H797.881V850.795C797.881 839.48 796.842 832.175 794.766 828.881C791.973 824.584 787.676 822.436 781.875 822.436C777.65 822.436 773.675 823.725 769.951 826.303C766.227 828.881 763.542 832.676 761.895 837.689C760.247 842.631 759.424 850.473 759.424 861.215V916H729.238V853.48C729.238 842.38 728.701 835.219 727.627 831.996C726.553 828.773 724.87 826.374 722.578 824.799C720.358 823.223 717.314 822.436 713.447 822.436C708.792 822.436 704.603 823.689 700.879 826.195C697.155 828.702 694.469 832.318 692.822 837.045C691.247 841.771 690.459 849.613 690.459 860.57V916H660.273V801.918ZM856.963 916V758.52H887.148V815.238C896.458 804.639 907.487 799.34 920.234 799.34C934.128 799.34 945.622 804.389 954.717 814.486C963.812 824.512 968.359 838.943 968.359 857.777C968.359 877.257 963.704 892.26 954.395 902.787C945.156 913.314 933.913 918.578 920.664 918.578C914.147 918.578 907.702 916.967 901.328 913.744C895.026 910.45 889.583 905.616 885 899.242V916H856.963ZM886.934 856.488C886.934 868.305 888.796 877.042 892.52 882.699C897.747 890.72 904.694 894.73 913.359 894.73C920.02 894.73 925.677 891.902 930.332 886.244C935.059 880.515 937.422 871.527 937.422 859.281C937.422 846.247 935.059 836.866 930.332 831.137C925.605 825.336 919.554 822.436 912.178 822.436C904.945 822.436 898.929 825.264 894.131 830.922C889.333 836.508 886.934 845.03 886.934 856.488ZM1058.81 879.691L1088.89 884.74C1085.02 895.769 1078.9 904.184 1070.52 909.984C1062.21 915.714 1051.79 918.578 1039.26 918.578C1019.42 918.578 1004.74 912.097 995.215 899.135C987.695 888.751 983.936 875.645 983.936 859.818C983.936 840.912 988.877 826.124 998.76 815.453C1008.64 804.711 1021.14 799.34 1036.25 799.34C1053.22 799.34 1066.61 804.962 1076.43 816.205C1086.24 827.377 1090.93 844.529 1090.5 867.66H1014.87C1015.09 876.612 1017.52 883.594 1022.18 888.607C1026.83 893.549 1032.63 896.02 1039.58 896.02C1044.31 896.02 1048.28 894.73 1051.5 892.152C1054.73 889.574 1057.16 885.421 1058.81 879.691ZM1060.53 849.184C1060.31 840.447 1058.06 833.822 1053.76 829.311C1049.46 824.727 1044.24 822.436 1038.08 822.436C1031.49 822.436 1026.04 824.835 1021.75 829.633C1017.45 834.431 1015.34 840.948 1015.41 849.184H1060.53ZM1144.1 916H1113.92V801.918H1141.95V818.139C1146.75 810.476 1151.05 805.427 1154.84 802.992C1158.71 800.557 1163.08 799.34 1167.95 799.34C1174.82 799.34 1181.45 801.238 1187.82 805.033L1178.48 831.352C1173.39 828.057 1168.67 826.41 1164.3 826.41C1160.07 826.41 1156.49 827.592 1153.55 829.955C1150.62 832.247 1148.29 836.436 1146.57 842.523C1144.93 848.611 1144.1 861.358 1144.1 880.766V916ZM1265.81 875.395H1238.42C1238.35 871.456 1238.31 869.057 1238.31 868.197C1238.31 859.317 1239.78 852.012 1242.71 846.283C1245.65 840.554 1251.52 834.109 1260.33 826.947C1269.14 819.786 1274.4 815.095 1276.12 812.875C1278.77 809.366 1280.1 805.499 1280.1 801.273C1280.1 795.401 1277.73 790.388 1273.01 786.234C1268.35 782.009 1262.05 779.896 1254.1 779.896C1246.44 779.896 1240.03 782.081 1234.87 786.449C1229.72 790.818 1226.17 797.478 1224.24 806.43L1196.52 802.992C1197.31 790.173 1202.75 779.288 1212.85 770.336C1223.02 761.384 1236.34 756.908 1252.81 756.908C1270.14 756.908 1283.93 761.456 1294.17 770.551C1304.41 779.574 1309.53 790.102 1309.53 802.133C1309.53 808.793 1307.63 815.095 1303.84 821.039C1300.11 826.983 1292.09 835.076 1279.78 845.316C1273.4 850.616 1269.43 854.877 1267.85 858.1C1266.35 861.322 1265.67 867.087 1265.81 875.395ZM1238.42 916V885.814H1268.6V916H1238.42Z" fill="#3C3C3C"/>
</svg>
